<svg width="24" height="32" viewBox="0 0 24 32" fill="none" xmlns="http://www.w3.org/2000/svg">
<path d="M23.2748 18.8588L23.2534 18.5652C22.9098 14.0915 20.8267 11.287 18.9891 8.81336C17.2875 6.52278 15.8178 4.54472 15.8178 1.6261C15.8178 1.39173 15.6866 1.17752 15.4784 1.07007C15.2697 0.962024 15.0189 0.979719 14.8291 1.1177C12.0692 3.09271 9.76641 6.42147 8.962 9.5976C8.40357 11.8089 8.32968 14.2947 8.31931 15.9365C5.77058 15.3921 5.19322 11.5793 5.18712 11.5379C5.15841 11.3401 5.0376 11.168 4.86182 11.074C4.68423 10.9812 4.47547 10.9745 4.29542 11.0636C4.16177 11.1283 1.01488 12.7274 0.831777 19.1126C0.818945 19.325 0.818359 19.5374 0.818359 19.7504C0.818359 25.9532 5.86515 31 12.0679 31C18.2707 31 23.3175 25.9532 23.3175 19.7504C23.3175 19.4392 23.2962 19.1487 23.2748 18.8588ZM12.0679 29.7501C10.0001 29.7501 8.31808 27.9582 8.31808 25.7555C8.31808 25.6804 8.3175 25.6047 8.32295 25.512C8.34797 24.583 8.52438 23.9489 8.71785 23.5272C9.08042 24.306 9.72915 25.0218 10.7814 25.0218C11.1268 25.0218 11.4064 24.7423 11.4064 24.3968C11.4064 23.507 11.4247 22.4804 11.6463 21.5539C11.8434 20.7318 12.3146 19.8584 12.9115 19.1578C13.177 20.0672 13.6946 20.8032 14.1999 21.5216C14.9232 22.5494 15.6708 23.612 15.802 25.424C15.81 25.5314 15.8179 25.6395 15.8179 25.7554C15.8178 27.9582 14.1358 29.7501 12.0679 29.7501ZM16.0177 28.9335C16.6664 28.0488 17.0678 26.9552 17.0678 25.7555C17.0678 25.6084 17.0587 25.4716 17.0403 25.216C16.892 23.1756 16.0052 21.9147 15.2222 20.8021C14.5551 19.8548 13.9796 19.0364 13.9796 17.8755C13.9796 17.6381 13.8453 17.4215 13.6329 17.3159C13.4217 17.2096 13.1666 17.2335 12.978 17.3769C11.7793 18.2826 10.7796 19.8072 10.4305 21.2629C10.2523 22.0094 10.19 22.8168 10.1681 23.4808C9.73471 23.0146 9.60042 22.1503 9.59925 22.1387C9.57118 21.9379 9.4479 21.7627 9.26785 21.6694C9.08903 21.5767 8.87482 21.5742 8.69477 21.6669C8.53727 21.7475 7.15369 22.541 7.07436 25.4595C7.06885 25.5584 7.06827 25.6573 7.06827 25.7555C7.06827 26.9553 7.46962 28.0489 8.11834 28.9335C4.56394 27.3987 2.06847 23.8617 2.06847 19.7505C2.06847 19.5632 2.06788 19.3764 2.08066 19.1682C2.18806 15.422 3.38678 13.5642 4.16921 12.7446C4.71482 14.6976 6.14422 17.2506 8.9432 17.2506C9.28865 17.2506 9.56819 16.9711 9.56819 16.6256C9.56819 14.534 9.61518 12.1171 10.1743 9.90404C10.809 7.39679 12.5478 4.68939 14.6467 2.85658C14.9952 5.53352 16.4533 7.49633 17.9859 9.55858C19.8077 12.0109 21.6912 14.5468 22.0067 18.6531L22.0281 18.9522C22.0476 19.2122 22.0678 19.4716 22.0678 19.7505C22.0676 23.8616 19.5721 27.3987 16.0177 28.9335Z" fill="black" stroke="black" stroke-width="0.5"/>
</svg>
