<svg width="25" height="30" viewBox="0 0 25 30" fill="none" xmlns="http://www.w3.org/2000/svg">
<path d="M20.6465 11.0156H18.5349V6.19746C18.5349 2.78016 15.6961 0 12.2068 0C8.7175 0 5.87869 2.78016 5.87869 6.19746V11.0156H3.77148C1.83297 11.0156 0.255859 12.5927 0.255859 14.5312V26.4844C0.255859 28.4229 1.83297 30 3.77148 30H20.6465C22.585 30 24.1621 28.4229 24.1621 26.4844V14.5312C24.1621 12.5927 22.585 11.0156 20.6465 11.0156ZM8.22244 6.19746C8.22244 4.0725 10.0098 2.34375 12.2068 2.34375C14.4038 2.34375 16.1912 4.0725 16.1912 6.19746V11.0156H8.22244V6.19746ZM21.8184 26.4844C21.8184 27.1305 21.2927 27.6562 20.6465 27.6562H3.77148C3.12531 27.6562 2.59961 27.1305 2.59961 26.4844V14.5312C2.59961 13.8851 3.12531 13.3594 3.77148 13.3594H20.6465C21.2927 13.3594 21.8184 13.8851 21.8184 14.5312V26.4844Z" fill="#333333"/>
</svg>
