<svg width="101" height="100" viewBox="0 0 101 100" fill="none" xmlns="http://www.w3.org/2000/svg">
<circle cx="50.1826" cy="50" r="50" fill="#FBE214"/>
<path d="M62.3803 55.272C60.5014 53.3116 58.2651 51.8603 55.8252 50.9817C58.4384 49.1036 60.1553 45.9604 60.1553 42.4062C60.1553 36.6683 55.6815 32 50.1826 32C44.6837 32 40.21 36.6683 40.21 42.4062C40.21 45.9604 41.9268 49.1036 44.5401 50.9817C42.1002 51.8603 39.8639 53.3116 37.985 55.272C34.727 58.6719 32.9326 63.192 32.9326 68H35.6279C35.6279 59.6256 42.1571 52.8125 50.1826 52.8125C58.2081 52.8125 64.7373 59.6256 64.7373 68H67.4326C67.4326 63.192 65.6383 58.6719 62.3803 55.272ZM50.1826 50C46.1699 50 42.9053 46.5935 42.9053 42.4062C42.9053 38.219 46.1699 34.8125 50.1826 34.8125C54.1953 34.8125 57.46 38.219 57.46 42.4062C57.46 46.5935 54.1953 50 50.1826 50Z" fill="#333333" stroke="#333333" stroke-width="0.5" stroke-linecap="round" stroke-linejoin="round"/>
</svg>
