<svg width="22" height="21" viewBox="0 0 22 21" fill="none" xmlns="http://www.w3.org/2000/svg">
<path d="M0.421349 6.8246C0.574963 6.64392 0.800516 6.53975 1.03822 6.53975H3.28238L7.68965 0.559716C7.95401 0.200803 8.45984 0.12429 8.81963 0.387089C9.17967 0.650435 9.25702 1.15462 8.99292 1.51298L5.28816 6.5398H17.0537L13.3489 1.51298C13.0845 1.15432 13.1624 0.650435 13.5222 0.387089C13.882 0.123995 14.3881 0.201309 14.6524 0.559716L19.0597 6.5398H21.088C21.3257 6.5398 21.5513 6.64396 21.7049 6.82464C21.8585 7.00532 21.9245 7.24397 21.8855 7.47751L19.8643 19.5579C19.7994 19.9461 19.462 20.231 19.0669 20.231H3.0594C2.66407 20.231 2.32692 19.9464 2.26201 19.5579L0.240862 7.47751C0.201719 7.24422 0.267735 7.00528 0.421349 6.8246ZM3.7441 18.6202H18.3821L20.1338 8.15052H1.99244L3.7441 18.6202Z" fill="#333333"/>
<path d="M11.0627 10.0293C11.5092 10.0293 11.8711 10.3898 11.8711 10.8346V16.1232C11.8711 16.5681 11.5092 16.9286 11.0627 16.9286C10.6161 16.9286 10.2542 16.5683 10.2542 16.1232V10.8346C10.2542 10.3898 10.6161 10.0293 11.0627 10.0293Z" fill="#333333"/>
<path d="M6.88492 10.0293C7.33146 10.0293 7.69336 10.3898 7.69336 10.8346V16.1232C7.69336 16.5681 7.33146 16.9286 6.88492 16.9286C6.43834 16.9286 6.07644 16.5683 6.07648 16.1232V10.8346C6.07648 10.3898 6.43838 10.0293 6.88492 10.0293Z" fill="#333333"/>
<path d="M15.2423 10.0293C15.6889 10.0293 16.0508 10.3898 16.0508 10.8346V16.1232C16.0508 16.5681 15.6889 16.9286 15.2423 16.9286C14.7958 16.9286 14.4339 16.5683 14.4339 16.1232V10.8346C14.4339 10.3898 14.7958 10.0293 15.2423 10.0293Z" fill="#333333"/>
</svg>
