<svg width="12" height="21" viewBox="0 0 12 21" fill="none" xmlns="http://www.w3.org/2000/svg">
<path d="M0.667969 17.0078V15.1797C1.31641 15.4688 2.0625 15.707 2.90625 15.8945C3.75781 16.0742 4.53125 16.1641 5.22656 16.1641V11.0078C3.625 10.5 2.5 9.91016 1.85156 9.23828C1.21094 8.56641 0.890625 7.69922 0.890625 6.63672C0.890625 5.61328 1.28516 4.77344 2.07422 4.11719C2.87109 3.46094 3.92188 3.0625 5.22656 2.92188V0.789062H6.73828V2.89844C8.17578 2.9375 9.5625 3.22656 10.8984 3.76562L10.2891 5.30078C9.125 4.83984 7.94141 4.56641 6.73828 4.48047V9.56641C7.96484 9.95703 8.88281 10.3398 9.49219 10.7148C10.1016 11.082 10.5508 11.5078 10.8398 11.9922C11.1289 12.4688 11.2734 13.0508 11.2734 13.7383C11.2734 14.8008 10.875 15.6797 10.0781 16.375C9.28125 17.0625 8.16797 17.4961 6.73828 17.6758V20.3945H5.22656V17.7812C4.35156 17.7812 3.50391 17.7148 2.68359 17.582C1.86328 17.4414 1.19141 17.25 0.667969 17.0078ZM2.87109 6.61328C2.87109 7.20703 3.04688 7.68359 3.39844 8.04297C3.75 8.40234 4.35938 8.74219 5.22656 9.0625V4.52734C4.45312 4.65234 3.86719 4.89844 3.46875 5.26562C3.07031 5.625 2.87109 6.07422 2.87109 6.61328ZM6.73828 16.0469C8.43359 15.8125 9.28125 15.0938 9.28125 13.8906C9.28125 13.3281 9.10547 12.875 8.75391 12.5312C8.41016 12.1797 7.73828 11.832 6.73828 11.4883V16.0469Z" fill="#333333"/>
</svg>
