<svg width="50" height="50" viewBox="0 0 50 50" fill="none" xmlns="http://www.w3.org/2000/svg">
<circle cx="25" cy="25" r="25" fill="#FBE214"/>
<path d="M19.3383 36.9746L16.7985 34.4348L18.285 32.9484C18.4358 32.7975 18.4916 32.6236 18.4522 32.4267C18.4128 32.2297 18.3178 32.056 18.1667 31.9049C18.0028 31.741 17.8204 31.6408 17.6204 31.6047C17.4202 31.5686 17.2478 31.6228 17.1037 31.767L15.6172 33.2534L13.9534 31.5896L16.5031 29.0398C16.6474 28.8955 16.6952 28.7168 16.6459 28.5035C16.5967 28.2903 16.477 28.0884 16.2866 27.898C16.1094 27.7208 15.9159 27.6061 15.7057 27.5534C15.4958 27.5012 15.3154 27.5502 15.1645 27.7011L11.7485 31.1171C11.5647 31.301 11.4482 31.4995 11.399 31.7128C11.3498 31.9263 11.4007 32.1081 11.5515 32.2591L17.8027 38.5102C17.9539 38.6614 18.1457 38.7024 18.3787 38.6336C18.6116 38.5648 18.8329 38.4253 19.043 38.2151C19.253 38.005 19.3925 37.7837 19.4614 37.5507C19.5303 37.3178 19.4895 37.1258 19.3383 36.9746Z" fill="black"/>
<path d="M27.6032 28.1843C27.5311 28.1121 27.4558 28.0694 27.3768 28.0563L24.0003 27.0815C24.4858 25.9793 24.2169 24.9159 23.193 23.8921C21.7887 22.4877 20.279 22.5927 18.6646 24.2072L16.6267 26.2451C16.4889 26.3828 16.4216 26.5418 16.4249 26.7224C16.4282 26.9031 16.4923 27.0556 16.6168 27.1802L22.8778 33.4412C23.029 33.5924 23.2207 33.6334 23.4537 33.5644C23.6867 33.4955 23.9081 33.356 24.1181 33.146C24.3281 32.936 24.4675 32.7148 24.5366 32.4817C24.6055 32.2487 24.5645 32.0569 24.4133 31.9057L22.041 29.5333L22.6907 28.8835L26.6581 30.1534C26.9469 30.2454 27.206 30.1765 27.4357 29.9467C27.6654 29.717 27.7984 29.4134 27.8344 29.0358C27.8708 28.6584 27.7935 28.3746 27.6032 28.1843ZM21.8346 27.3769L20.8599 28.3517L19.0289 26.5207L20.0036 25.5459C20.2923 25.2572 20.5828 25.108 20.8749 25.0982C21.1668 25.0884 21.4769 25.2473 21.805 25.5754C22.1334 25.9037 22.2923 26.2138 22.2825 26.5058C22.2725 26.7979 22.1233 27.0881 21.8346 27.3769Z" fill="black"/>
<path d="M33.4218 23.4478C33.3694 23.2378 33.2545 23.0442 33.0773 22.867C32.887 22.6767 32.6852 22.557 32.4718 22.5077C32.2585 22.4587 32.0796 22.5062 31.9354 22.6504L29.2971 25.2888L27.6236 23.6153L29.1003 22.1386C29.2512 21.9877 29.307 21.8137 29.2676 21.6168C29.2283 21.4198 29.1333 21.2461 28.9822 21.095C28.8183 20.9311 28.6359 20.8309 28.4359 20.7948C28.2355 20.7588 28.0632 20.813 27.919 20.9572L26.4423 22.4339L24.7785 20.7701L27.4168 18.1317C27.5611 17.9874 27.6088 17.8086 27.5597 17.5953C27.5105 17.3821 27.3907 17.1802 27.2003 16.9898C27.0232 16.8125 26.8296 16.6978 26.6194 16.6452C26.4096 16.5929 26.229 16.6421 26.0781 16.793L22.5736 20.2975C22.39 20.4814 22.2734 20.6798 22.2242 20.8931C22.175 21.1066 22.2259 21.2885 22.3767 21.4394L28.6279 27.6906C28.7791 27.8418 28.9609 27.8927 29.1741 27.8432C29.3875 27.7942 29.5858 27.6776 29.7696 27.4938L33.2741 23.9892C33.425 23.8383 33.4744 23.658 33.4218 23.4478Z" fill="black"/>
<path d="M38.7299 18.143C38.6775 17.933 38.5626 17.7394 38.3854 17.5622C38.1951 17.3719 37.9933 17.2522 37.78 17.2029C37.5666 17.1539 37.3878 17.2013 37.2435 17.3456L34.6053 19.9838L32.9318 18.3104L34.4084 16.8338C34.5593 16.6829 34.6151 16.5089 34.5757 16.312C34.5364 16.115 34.4414 15.9413 34.2903 15.7902C34.1264 15.6263 33.944 15.5261 33.744 15.4901C33.5436 15.4541 33.3714 15.5082 33.2271 15.6525L31.7505 17.1291L30.0867 15.4653L32.7249 12.827C32.8693 12.6826 32.9169 12.504 32.8678 12.2906C32.8186 12.0774 32.6988 11.8755 32.5084 11.6851C32.3313 11.5078 32.1377 11.3931 31.9275 11.3405C31.7177 11.2883 31.5371 11.3374 31.3862 11.4883L27.8817 14.9928C27.6981 15.1766 27.5815 15.3752 27.5323 15.5884C27.4831 15.8019 27.534 15.9838 27.6848 16.1347L33.936 22.3859C34.0872 22.5371 34.269 22.588 34.4822 22.5385C34.6956 22.4895 34.8939 22.3729 35.0777 22.1891L38.5822 18.6845C38.7331 18.5336 38.7825 18.3532 38.7299 18.143Z" fill="black"/>
</svg>
