<svg width="50" height="50" viewBox="0 0 50 50" fill="none" xmlns="http://www.w3.org/2000/svg">
<circle cx="25" cy="25" r="25" fill="#FF5C00"/>
<path d="M27.4855 34.2344H24.5021V20.1934H27.4855V34.2344ZM24.3244 16.4736C24.3244 15.9404 24.4682 15.5299 24.756 15.2422C25.0522 14.9544 25.4712 14.8105 26.0128 14.8105C26.5376 14.8105 26.9438 14.9544 27.2316 15.2422C27.5278 15.5299 27.6759 15.9404 27.6759 16.4736C27.6759 16.9814 27.5278 17.3835 27.2316 17.6797C26.9438 17.9674 26.5376 18.1113 26.0128 18.1113C25.4712 18.1113 25.0522 17.9674 24.756 17.6797C24.4682 17.3835 24.3244 16.9814 24.3244 16.4736Z" fill="black"/>
</svg>
