<svg width="34" height="35" viewBox="0 0 34 35" fill="none" xmlns="http://www.w3.org/2000/svg">
<path d="M28.7993 5.82338C32.0679 9.13696 33.7165 13.495 33.7165 17.8407C33.7165 22.1865 32.072 26.5445 28.7993 29.8581C25.5266 33.188 21.2312 34.8428 16.944 34.8428C12.6567 34.8428 8.35722 33.1839 5.08862 29.8581C1.80774 26.5445 0.171387 22.1906 0.171387 17.8407C0.171387 13.495 1.80774 9.13696 5.08862 5.82338C8.35722 2.5098 12.6567 0.842773 16.944 0.842773C21.2312 0.842773 25.5266 2.5098 28.7993 5.82338ZM20.3312 27.3801C25.5266 24.2508 25.1503 15.8337 22.3235 11.2218C20.6667 8.51028 18.7603 7.43716 16.944 7.46993C15.1235 7.43716 13.2213 8.51438 11.5645 11.2218C8.73767 15.8296 8.36131 24.2508 13.5567 27.3801C14.3135 27.8429 15.4303 28.2156 16.5758 28.2156C16.8253 28.2156 17.0626 28.2156 17.3121 28.2156C18.4494 28.2156 19.5744 27.8429 20.3312 27.3801ZM28.247 7.48221L24.2421 11.5412C24.0907 11.2218 23.9189 10.9064 23.743 10.6074L23.6121 10.3985H23.6244C23.5712 10.3125 23.518 10.2224 23.4607 10.1445L27.163 6.38042C24.2707 3.72628 20.6012 2.39512 16.944 2.39512C13.0454 2.39512 9.13858 3.89831 6.1727 6.91698C3.19045 9.93975 1.69728 13.8923 1.69728 17.8407C1.69728 21.5516 3.00636 25.2707 5.63679 28.2033L9.16722 24.6235C9.3963 25.1191 9.65403 25.5779 9.94857 26.0161L6.72087 29.2969C9.61312 31.9634 13.2826 33.2904 16.9399 33.2904C20.8385 33.2904 24.7371 31.775 27.7111 28.7563C30.6893 25.7499 32.1825 21.7851 32.1825 17.8366C32.1866 14.1339 30.8652 10.4108 28.247 7.48221Z" fill="#4F4F4F"/>
</svg>
