<svg width="35" height="35" viewBox="0 0 35 35" fill="none" xmlns="http://www.w3.org/2000/svg">
<path d="M29.5008 5.81638C32.7742 9.14305 34.4252 13.4898 34.4252 17.8366C34.4252 22.1957 32.7783 26.5425 29.5008 29.8692C26.2274 33.1835 21.9215 34.8428 17.628 34.8428C13.3345 34.8428 9.02867 33.1835 5.75526 29.8692C2.46956 26.5425 0.830811 22.1957 0.830811 17.8366C0.830811 13.4898 2.46956 9.14305 5.75526 5.81638C9.02867 2.50201 13.3345 0.842773 17.628 0.842773C21.9215 0.842773 26.2233 2.50201 29.5008 5.81638ZM15.2641 6.46369C15.2641 7.365 15.1125 8.00002 15.7189 8.00002H19.5372C20.1435 8.00002 19.9919 7.365 19.9919 6.46369C19.9919 6.30801 19.8198 6.13594 19.6683 6.13594H15.5919C15.4362 6.13594 15.2641 6.30801 15.2641 6.46369ZM13.2894 16.5748V28.4844C13.2894 29.0867 13.7442 29.5496 14.3423 29.5496H20.9137C21.5119 29.5496 21.9666 29.0867 21.9666 28.4844V16.5748C21.9666 14.2601 19.7215 11.9535 19.6683 9.79036C19.6478 9.18812 19.7994 8.65962 19.4716 8.65962H15.7844C15.469 8.65962 15.6001 9.17583 15.5878 9.72481C15.5673 11.9084 13.2894 14.2355 13.2894 16.5748ZM28.9477 7.47562L22.7983 13.6988C22.5934 13.2276 22.364 12.777 22.1387 12.314L22.0936 12.228L27.862 6.38585C24.9655 3.71878 21.2906 2.39139 17.628 2.39139C13.7237 2.39139 9.81117 3.89495 6.84093 6.91435C3.85431 9.93375 2.35895 13.8831 2.35895 17.8366C2.35895 21.5566 3.66995 25.2684 6.30424 28.2099L11.7572 22.6873V24.871L7.38582 29.2956C10.2823 31.9627 13.9572 33.2901 17.6198 33.2901C21.5241 33.2901 25.4285 31.7865 28.4069 28.7671C31.3894 25.7477 32.8848 21.7942 32.8848 17.8325C32.893 14.1249 31.5697 10.4172 28.9477 7.47562Z" fill="#4F4F4F"/>
</svg>
