<svg width="50" height="50" viewBox="0 0 50 50" fill="none" xmlns="http://www.w3.org/2000/svg">
<path d="M42.1153 7.31413C46.9238 12.2063 49.3311 18.5986 49.3311 24.991C49.3311 31.4014 46.9238 37.7937 42.1153 42.6859C37.2887 47.5599 30.9816 50 24.6746 50C18.3495 50 12.0424 47.5599 7.23386 42.6859C2.40728 37.7937 0 31.4014 0 24.991C0 18.5986 2.40728 12.2063 7.23386 7.31413C12.0424 2.44005 18.3495 0 24.6746 0C30.9816 0 37.2887 2.44005 42.1153 7.31413ZM11.2781 20.7796V31.7267C11.2781 33.016 11.8498 33.6306 12.8849 34.2632L21.9664 39.8C22.5742 40.1856 23.4168 40.5109 23.4168 39.5108V38.6553C23.5311 35.5585 23.4168 28.5336 23.4168 26.8888C23.4168 26.2441 22.8571 25.6296 22.3335 25.3404L12.8248 20.1109C11.9822 19.6168 11.2781 19.5807 11.2781 20.7796ZM36.4582 34.2571L27.3767 39.7939C26.7569 40.1795 25.9143 40.5049 25.9143 39.5048V38.6492C25.8 35.5525 25.9143 28.5275 25.9143 26.8828C25.9143 26.2381 26.474 25.6236 27.0157 25.3344L36.5244 20.1048C37.3549 19.6228 38.053 19.5867 38.053 20.7856V31.7327C38.053 33.016 37.4813 33.6306 36.4582 34.2571ZM22.6826 23.1534L13.3664 18.0022C13.0173 17.8274 12.6683 17.6467 12.3975 17.472C11.7415 17.0984 11.8739 16.7309 12.1929 16.4237C12.6201 16.0019 13.4988 15.6465 14.0886 15.3091L22.8029 10.4832C24.2232 9.60959 25.1259 9.60959 26.5462 10.4832L35.2726 15.3091C35.8624 15.6465 36.723 16.0019 37.1503 16.4237C37.4692 16.7309 37.5956 17.1045 36.9457 17.472C36.6929 17.6467 36.3258 17.8274 35.9888 18.0022L26.6546 23.1534C25.0597 24.0872 24.2774 24.0872 22.6826 23.1534ZM41.3028 9.75419L37.2887 13.8209C37.1443 13.7426 36.9878 13.6583 36.8434 13.5799C36.6387 13.4836 36.4462 13.3872 36.3499 13.3209L35.2184 12.6883L39.708 8.15158C35.4411 4.22943 30.0548 2.27738 24.6746 2.27738C18.9272 2.27738 13.1919 4.48849 8.81063 8.92879C4.42939 13.3691 2.2508 19.183 2.2508 24.991C2.2508 30.4615 4.17662 35.92 8.04632 40.2458L11.916 36.3056L13.908 37.5166L9.62309 41.8424C13.89 45.7645 19.2763 47.7166 24.6746 47.7166C30.4099 47.7166 36.1452 45.5055 40.5205 41.0652C44.9017 36.6249 47.0803 30.8109 47.0803 24.9849C47.0863 19.5325 45.1605 14.08 41.3028 9.75419Z" fill="#4F4F4F"/>
</svg>
