<?xml version="1.0" encoding="utf-8"?><svg xml:space="preserve" viewBox="0 0 100 100" y="0" x="0" xmlns="http://www.w3.org/2000/svg" id="圖層_1" version="1.1" width="200px" height="200px" xmlns:xlink="http://www.w3.org/1999/xlink" style="width:100%;height:100%;background-size:initial;background-repeat-y:initial;background-repeat-x:initial;background-position-y:initial;background-position-x:initial;background-origin:initial;background-color:initial;background-clip:initial;background-attachment:initial;animation-play-state:paused" ><g class="ldl-scale" style="transform-origin:50% 50%;transform:scale(0.6);animation-play-state:paused" ><path fill="#8c6239" d="M33.498 12.682c.536-.728.897-1.706 1.145-2.614.362-1.324.475-2.498.475-2.498S32.376 5.503 31.3 5.039c-1.076-.464-5.567 3.369-5.567 3.369.375 1.729.883 3.573-.15 6.657-.026.077-.07.167-.099.247l4.987 2.226c.594-1.547 1.828-3.225 3.027-4.856z" style="fill:rgb(140, 98, 57);animation-play-state:paused" ></path>
<path fill="#edc61a" d="M84.712 83.234c-.263-.216-.519-.453-.681-.752-.172-.317-.228-.682-.279-1.039a69.33 69.33 0 0 1-.189-1.433l-.004-.033c-.04-.331-.078-.671.006-.993.094-.365.335-.673.579-.961.198-.234.412-.453.623-.676-.995-.438-2.409-.912-4.519-1.232-3.541-.537-11.795-.356-14.222-1.14-2.428-.784-12.344-1.049-17.686-4.939-5.342-3.891-15.329-15.161-16.121-22.66-.792-7.499-.176-13.405-1.092-16.418-.701-2.308-.707-5.061-.31-6.922-.729-2.331-.89-4.789-.508-6.048.045-.148.104-.299.162-.45l-4.987-2.226c-1.127 3.092-4.508 7.773-5.976 9.468-1.229 1.419-2.844 3.136-3.724 5.851a12.035 12.035 0 0 0-1.958 3.562c-1.315 3.751-2.86 12.539-1.575 19.082 2.07 10.548 10.165 26.203 24.023 34.002 13.376 7.528 26.478 10.306 39.345 4.924 6.37-2.665 9.595-5.64 11.183-7.649-.74-.372-1.45-.794-2.09-1.318z" style="fill:rgb(237, 198, 26);animation-play-state:paused" ></path>
<path fill="#8c6239" d="M86.52 78.306c-.031-.026-.063-.074-.094-.091-.361-.207-.887-.527-1.66-.867-.21.223-.424.442-.622.676-.244.288-.485.596-.579.961-.084.322-.046.662-.006.993l.004.033c.058.478.121.956.189 1.433.051.357.107.722.279 1.039.162.299.417.537.681.752.64.524 1.35.946 2.089 1.318 1.117-1.413 1.431-2.352 1.431-2.352s-.907-3.231-1.712-3.895z" style="fill:rgb(140, 98, 57);animation-play-state:paused" ></path>
<metadata xmlns:d="https://loading.io/stock/" style="animation-play-state:paused" ><d:name style="animation-play-state:paused" >banana</d:name>


<d:tags style="animation-play-state:paused" >banana,fruit,monkey</d:tags>


<d:license style="animation-play-state:paused" >by</d:license>


<d:slug style="animation-play-state:paused" >qqpfv</d:slug></metadata></g><!-- generated by https://loading.io/ --></svg>