<svg width="40" height="42" viewBox="0 0 40 42" fill="none" xmlns="http://www.w3.org/2000/svg">
<path d="M33.7196 26.8578C31.632 24.6795 29.1472 23.067 26.4362 22.0908C29.3398 20.004 31.2474 16.5116 31.2474 12.5625C31.2474 6.18695 26.2766 1 20.1667 1C14.0568 1 9.08594 6.18695 9.08594 12.5625C9.08594 16.5116 10.9935 20.004 13.8972 22.0908C11.1862 23.067 8.70141 24.6795 6.61381 26.8578C2.99371 30.6354 1 35.6578 1 41H3.99479C3.99479 31.6951 11.2494 24.125 20.1667 24.125C29.0839 24.125 36.3385 31.6951 36.3385 41H39.3333C39.3333 35.6578 37.3396 30.6354 33.7196 26.8578ZM20.1667 21C15.7081 21 12.0807 17.215 12.0807 12.5625C12.0807 7.91 15.7081 4.125 20.1667 4.125C24.6252 4.125 28.2526 7.91 28.2526 12.5625C28.2526 17.215 24.6252 21 20.1667 21Z" fill="white" stroke="white" stroke-width="0.5" stroke-linecap="round" stroke-linejoin="round"/>
</svg>
