<svg width="16" height="27" viewBox="0 0 16 27" fill="none" xmlns="http://www.w3.org/2000/svg">
<path d="M0.861328 22.3438V19.9062C1.72591 20.2917 2.7207 20.6094 3.8457 20.8594C4.98112 21.099 6.01237 21.2188 6.93945 21.2188V14.3438C4.80404 13.6667 3.30404 12.8802 2.43945 11.9844C1.58529 11.0885 1.1582 9.93229 1.1582 8.51562C1.1582 7.15104 1.68424 6.03125 2.73633 5.15625C3.79883 4.28125 5.19987 3.75 6.93945 3.5625V0.71875H8.95508V3.53125C10.8717 3.58333 12.7207 3.96875 14.502 4.6875L13.6895 6.73438C12.1374 6.11979 10.5592 5.75521 8.95508 5.64062V12.4219C10.5905 12.9427 11.8145 13.4531 12.627 13.9531C13.4395 14.4427 14.0384 15.0104 14.4238 15.6562C14.8092 16.2917 15.002 17.0677 15.002 17.9844C15.002 19.401 14.4707 20.5729 13.4082 21.5C12.3457 22.4167 10.8613 22.9948 8.95508 23.2344V26.8594H6.93945V23.375C5.77279 23.375 4.64258 23.2865 3.54883 23.1094C2.45508 22.9219 1.55924 22.6667 0.861328 22.3438ZM3.79883 8.48438C3.79883 9.27604 4.0332 9.91146 4.50195 10.3906C4.9707 10.8698 5.7832 11.3229 6.93945 11.75V5.70312C5.9082 5.86979 5.12695 6.19792 4.5957 6.6875C4.06445 7.16667 3.79883 7.76562 3.79883 8.48438ZM8.95508 21.0625C11.2155 20.75 12.3457 19.7917 12.3457 18.1875C12.3457 17.4375 12.1113 16.8333 11.6426 16.375C11.1842 15.9062 10.2884 15.4427 8.95508 14.9844V21.0625Z" fill="#333333"/>
</svg>
