<svg width="81" height="80" viewBox="0 0 81 80" fill="none" xmlns="http://www.w3.org/2000/svg">
<path d="M74.4336 12.4704L60.5616 0.780602C59.1531 -0.403919 57.0507 -0.218921 55.8662 1.18982C54.6817 2.59856 54.8667 4.70073 56.2754 5.88525L63.1529 11.7302H30.207C19.7642 11.7418 11.3008 20.2051 11.2891 30.6482V36.6295C11.2891 38.4687 12.7814 39.9611 14.6206 39.9611C16.4598 39.9611 17.9521 38.4687 17.9521 36.6295V30.5897C17.9639 23.8253 23.4424 18.3466 30.207 18.3348H63.1724L56.295 24.1798C54.8864 25.3643 54.7012 27.4666 55.8857 28.8752C57.0703 30.2838 59.1726 30.469 60.5812 29.2844L74.4531 17.5945C75.8617 16.4119 76.0468 14.3097 74.8642 12.9011C74.7395 12.753 74.6012 12.6147 74.4531 12.49L74.4336 12.4704Z" fill="#333333"/>
<path d="M65.6471 39.9805C63.8079 39.9805 62.3156 41.4728 62.3156 43.312V49.3518C62.3038 56.1163 56.8253 61.595 50.0606 61.6067H17.0953L23.9727 55.7618C25.584 54.8715 26.1685 52.8452 25.278 51.2338C24.3877 49.6226 22.3615 49.0381 20.7501 49.9285C20.3799 50.1331 20.0507 50.4059 19.7837 50.7351L5.91177 62.425C4.50319 63.6076 4.31803 65.7098 5.50068 67.1184C5.62537 67.2665 5.76365 67.4048 5.91177 67.5295L19.7837 79.2192C21.1923 80.4038 23.2946 80.2188 24.4791 78.81C25.6636 77.4013 25.4786 75.2991 24.0699 74.1146L17.1925 68.2696H50.0603C60.5032 68.2579 68.9668 59.7945 68.9783 49.3517V43.3122C68.9788 41.4709 67.4863 39.9805 65.6471 39.9805Z" fill="#828282"/>
</svg>
