<svg width="35" height="35" viewBox="0 0 35 35" fill="none" xmlns="http://www.w3.org/2000/svg">
<path d="M17.0845 34.8428C26.4733 34.8428 34.0845 27.2316 34.0845 17.8428C34.0845 8.45393 26.4733 0.842773 17.0845 0.842773C7.69563 0.842773 0.0844727 8.45393 0.0844727 17.8428C0.0844727 27.2316 7.69563 34.8428 17.0845 34.8428Z" fill="#4F4F4F"/>
<path d="M12.3998 17.4533C12.3998 16.2559 12.0197 15.2392 11.25 14.4125C10.4613 13.5572 9.492 13.1201 8.31369 13.1201C7.05936 13.1201 5.99508 13.6142 5.13035 14.6025C4.31313 15.5528 3.89502 16.6741 3.89502 17.9569C3.89502 19.3918 4.32263 20.5416 5.18736 21.4063C6.04259 22.271 7.20189 22.6987 8.64628 22.6987C10.0812 22.6987 11.25 22.214 12.1622 21.2448C12.2572 21.1402 12.3142 21.0642 12.3142 21.0262C12.3142 20.9977 12.2097 20.7696 11.9912 20.3515C11.7726 19.9334 11.6586 19.7149 11.6396 19.7054C11.6206 19.6959 11.5921 19.6864 11.5445 19.6864C11.4495 19.7719 11.345 19.8479 11.25 19.9334C10.4328 20.5701 9.53001 20.8837 8.54175 20.8837C7.9716 20.8837 7.42996 20.7031 6.93582 20.3325C6.41319 19.9429 6.10911 19.4773 6.03309 18.9357C9.61553 18.6696 11.5445 18.489 11.8106 18.3845C12.2002 18.2135 12.3998 17.9094 12.3998 17.4533ZM9.63454 17.0637C8.3517 17.2537 7.24941 17.3392 6.32766 17.3392C6.0996 17.3392 5.99508 17.2727 5.99508 17.1397C5.99508 16.5695 6.21363 16.0469 6.66025 15.5908C7.10687 15.1347 7.6105 14.8971 8.19016 14.8971C8.70329 14.8971 9.15941 15.0966 9.56802 15.4957C9.97663 15.8949 10.1762 16.351 10.1762 16.8641C10.1762 16.9496 9.99563 17.0161 9.63454 17.0637Z" fill="white"/>
<path d="M17.9398 15.0584C18.2724 15.0584 18.586 15.1249 18.8711 15.2485C19.1561 15.372 19.4317 15.4955 19.7168 15.6191C19.7738 15.6191 19.8688 15.3815 20.0114 14.9064C20.1539 14.4312 20.2299 14.1272 20.2299 13.9941C20.2299 13.9371 20.1634 13.8706 20.0399 13.7946C19.3177 13.348 18.5195 13.1294 17.6452 13.1294C16.3434 13.1294 15.2601 13.6045 14.3859 14.5453C13.5402 15.467 13.1125 16.5883 13.1125 17.9092C13.1125 19.2015 13.5497 20.3228 14.4144 21.254C15.2981 22.2138 16.3814 22.6889 17.6643 22.6889C17.9588 22.6889 18.4054 22.6129 19.0136 22.4514C19.7453 22.2613 20.1064 22.0713 20.1064 21.8812C20.1064 21.7007 20.0589 21.3776 19.9639 20.9025C19.8688 20.3893 19.7833 20.1327 19.6978 20.1232C19.7168 20.1327 19.5362 20.2373 19.1561 20.4273C18.7475 20.6364 18.3389 20.7314 17.9208 20.7314C17.1701 20.7314 16.5335 20.4463 16.0108 19.8762C15.4977 19.325 15.2411 18.6694 15.2411 17.9092C15.2411 17.1395 15.4977 16.4648 16.0108 15.9041C16.5335 15.3435 17.1701 15.0584 17.9398 15.0584Z" fill="white"/>
<path d="M26.7961 16.3888C27.7654 16.4078 28.8867 15.9802 29.4949 15.7236C29.1718 15.1535 28.7252 14.6499 28.2025 14.2603L26.7961 16.3888Z" fill="white"/>
<path d="M28.6584 18.185C29.3711 17.9569 29.8748 17.6718 30.0648 17.5578C30.0078 17.0257 29.8748 16.522 29.6562 16.0659C29.4376 16.1609 29.1431 16.2845 28.8105 16.389C28.0598 16.6361 27.4041 16.7691 26.8435 16.7691C26.7389 16.7691 26.6439 16.7691 26.5489 16.7596L25.4751 18.394C26.7674 18.6316 27.9077 18.4225 28.6584 18.185Z" fill="white"/>
<path d="M24.0213 15.0206C24.0593 15.8283 24.2683 17.0066 25 18.1659L26.1213 16.56C25.8363 15.9993 25.6842 15.2201 25.6557 14.2604C25.6462 13.9088 25.6557 13.5952 25.6652 13.3576C25.5797 13.3576 25.5037 13.3481 25.4182 13.3481C24.962 13.3481 24.5249 13.4147 24.1068 13.5382C24.0593 13.7758 23.9833 14.3174 24.0213 15.0206Z" fill="white"/>
<path d="M27.8698 14.0419C27.3186 13.6998 26.701 13.4718 26.0358 13.3862C26.0073 14.0514 26.0073 15.2867 26.3684 16.1895L27.8698 14.0419Z" fill="white"/>
<path d="M21.9403 16.8642C22.1398 17.8715 22.5769 19.2494 23.4987 20.2946L24.7625 18.4892C24.4014 17.9475 24.1258 17.3584 23.9358 16.7312C23.7742 16.1801 23.6697 15.6099 23.6412 15.0207C23.6127 14.4411 23.6602 13.9755 23.6982 13.6714C22.919 13.9755 22.2348 14.4886 21.7312 15.1443C21.7502 15.5244 21.7977 16.142 21.9403 16.8642Z" fill="white"/>
<path d="M22.5199 21.7006L23.2801 20.6078C22.8429 20.1326 22.4818 19.553 22.1873 18.8973C21.9212 18.3082 21.7216 17.643 21.5696 16.9303C21.4746 16.4457 21.4176 15.9991 21.3796 15.6475C20.9614 16.3411 20.7239 17.1584 20.7239 18.0326C20.7334 19.515 21.4366 20.8453 22.5199 21.7006Z" fill="white"/>
<path d="M28.7915 18.5365C28.2309 18.717 27.6512 18.8215 27.0811 18.8595C26.9481 18.869 26.8055 18.869 26.6725 18.869C26.1974 18.869 25.7222 18.8215 25.2566 18.717L24.0403 20.551C25.3041 20.9881 26.682 20.9216 27.6512 20.76C28.478 20.627 29.1431 20.4275 29.4757 20.3134C29.8558 19.6388 30.0839 18.85 30.0839 18.0138C30.0839 17.9948 30.0839 17.9853 30.0839 17.9663C29.8273 18.1279 29.3807 18.3464 28.7915 18.5365Z" fill="white"/>
<path d="M27.7272 21.1402C27.1951 21.2257 26.6725 21.2637 26.1783 21.2637C26.0073 21.2637 25.8362 21.2542 25.6652 21.2447C25 21.2067 24.3824 21.0832 23.8312 20.8741L23.052 22.0524C23.7457 22.4611 24.5534 22.6891 25.4086 22.6891C26.9385 22.6891 28.3069 21.9479 29.1526 20.8076C28.7915 20.9216 28.2974 21.0452 27.7272 21.1402Z" fill="white"/>
</svg>
