<svg width="22" height="22" viewBox="0 0 22 22" fill="none" xmlns="http://www.w3.org/2000/svg">
<path d="M6.47045 20.5795L4.43862 18.5477L5.62778 17.3585C5.74848 17.2378 5.79306 17.0987 5.76153 16.9412C5.73008 16.7836 5.65406 16.6446 5.53319 16.5237C5.40207 16.3926 5.25615 16.3125 5.09613 16.2836C4.93594 16.2547 4.79808 16.298 4.68273 16.4134L3.49356 17.6025L2.16251 16.2715L4.20231 14.2317C4.31775 14.1162 4.35594 13.9732 4.31653 13.8026C4.2772 13.6321 4.18138 13.4706 4.02907 13.3182C3.88735 13.1764 3.7325 13.0846 3.56433 13.0425C3.39643 13.0007 3.25209 13.04 3.13139 13.1607L0.398609 15.8935C0.251551 16.0406 0.158359 16.1994 0.119033 16.37C0.0796187 16.5408 0.120347 16.6863 0.241041 16.8071L5.24196 21.808C5.36292 21.929 5.51637 21.9617 5.70276 21.9067C5.88905 21.8516 6.06615 21.74 6.23423 21.5719C6.40222 21.4038 6.51381 21.2268 6.5689 21.0404C6.62408 20.854 6.59141 20.7005 6.47045 20.5795Z" fill="black"/>
<path d="M13.0824 13.5468C13.0247 13.4891 12.9644 13.4549 12.9013 13.4444L10.2 12.6647C10.5885 11.7828 10.3733 10.9321 9.55424 10.1131C8.43077 8.98961 7.22304 9.07361 5.93149 10.3652L4.30116 11.9955C4.19089 12.1057 4.13711 12.2328 4.13974 12.3774C4.14237 12.5219 4.19361 12.6439 4.29328 12.7436L9.30208 17.7524C9.42303 17.8733 9.5764 17.9062 9.76278 17.8509C9.94917 17.7958 10.1263 17.6842 10.2943 17.5162C10.4622 17.3482 10.5738 17.1712 10.6291 16.9848C10.6842 16.7984 10.6514 16.6449 10.5305 16.524L8.63257 14.6261L9.15239 14.1062L12.3263 15.1221C12.5573 15.1957 12.7646 15.1406 12.9484 14.9568C13.1321 14.773 13.2386 14.5302 13.2673 14.2281C13.2965 13.9262 13.2346 13.6991 13.0824 13.5468ZM8.46747 12.901L7.68769 13.6807L6.22289 12.2159L7.00267 11.4362C7.23364 11.2052 7.46601 11.0858 7.69969 11.0779C7.93328 11.0701 8.18132 11.1972 8.44382 11.4597C8.70649 11.7224 8.83367 11.9704 8.82578 12.204C8.81781 12.4377 8.69843 12.6699 8.46747 12.901Z" fill="black"/>
<path d="M17.7373 9.75902C17.6953 9.59103 17.6034 9.43618 17.4616 9.29438C17.3094 9.14215 17.148 9.04642 16.9773 9.00692C16.8066 8.96777 16.6635 9.00578 16.5481 9.12113L14.4375 11.2318L13.0987 9.89303L14.2801 8.71166C14.4008 8.59097 14.4454 8.45171 14.4139 8.29423C14.3824 8.13666 14.3064 7.99766 14.1856 7.87679C14.0544 7.74567 13.9085 7.66553 13.7485 7.63663C13.5882 7.60781 13.4504 7.65117 13.335 7.76652L12.1536 8.94788L10.8226 7.61683L12.9332 5.50617C13.0487 5.39073 13.0869 5.2477 13.0475 5.07699C13.0082 4.90646 12.9124 4.74495 12.7601 4.59264C12.6184 4.45075 12.4635 4.35905 12.2953 4.31692C12.1274 4.27514 11.983 4.31447 11.8623 4.43516L9.05868 7.23881C8.9118 7.38586 8.81852 7.54466 8.77919 7.71528C8.73977 7.88607 8.7805 8.03155 8.9012 8.15234L13.9021 13.1533C14.0231 13.2742 14.1686 13.315 14.3391 13.2754C14.5098 13.2361 14.6684 13.1428 14.8155 12.9958L17.6191 10.1921C17.7398 10.0714 17.7793 9.92719 17.7373 9.75902Z" fill="black"/>
<path d="M21.9843 5.51381C21.9424 5.34582 21.8505 5.19097 21.7087 5.04916C21.5565 4.89694 21.3951 4.80121 21.2244 4.76171C21.0536 4.72255 20.9106 4.76048 20.7952 4.87592L18.6846 6.98649L17.3458 5.64773L18.5271 4.46645C18.6478 4.34576 18.6925 4.20649 18.661 4.04901C18.6295 3.89145 18.5535 3.75245 18.4326 3.63158C18.3015 3.50046 18.1556 3.42032 17.9956 3.3915C17.8353 3.36269 17.6975 3.40596 17.5821 3.52139L16.4008 4.70267L15.0697 3.37162L17.1803 1.26105C17.2958 1.14552 17.3339 1.00258 17.2946 0.831876C17.2553 0.661346 17.1595 0.499835 17.0072 0.347522C16.8654 0.205632 16.7106 0.113929 16.5424 0.0718003C16.3745 0.0300215 16.2301 0.0693484 16.1094 0.190043L13.3057 2.99368C13.1589 3.14066 13.0656 3.29954 13.0263 3.47016C12.9868 3.64095 13.0276 3.78643 13.1483 3.90721L18.1492 8.90814C18.2701 9.02909 18.4156 9.06982 18.5862 9.03023C18.7569 8.99099 18.9155 8.89771 19.0625 8.75066L21.8662 5.94701C21.9869 5.82632 22.0264 5.68198 21.9843 5.51381Z" fill="black"/>
</svg>
