<svg width="25" height="24" viewBox="0 0 25 24" fill="none" xmlns="http://www.w3.org/2000/svg">
<path d="M1.77734 12.5403V21.7913C1.77734 22.6424 2.46963 23.3331 3.31918 23.3331H11.0283V12.5403H1.77734Z" fill="black"/>
<path d="M23.3628 6.373H18.4845C18.8345 6.13401 19.1351 5.89657 19.3448 5.6838C20.5891 4.43337 20.5891 2.39816 19.3448 1.14773C18.136 -0.0703162 16.0299 -0.0672325 14.8226 1.14773C14.1535 1.81843 12.3804 4.54901 12.6255 6.373H12.5145C12.7581 4.54901 10.985 1.81843 10.3174 1.14773C9.10859 -0.0672325 7.00245 -0.0672325 5.7952 1.14773C4.55248 2.39816 4.55248 4.43337 5.79365 5.6838C6.00489 5.89657 6.30554 6.13401 6.65554 6.373H1.77718C0.927634 6.373 0.235352 7.06528 0.235352 7.91483V10.2276C0.235352 10.6531 0.580722 10.9985 1.00627 10.9985H11.0282V7.91483H14.1118V10.9985H24.1337C24.5593 10.9985 24.9047 10.6531 24.9047 10.2276V7.91483C24.9047 7.06528 24.2139 6.373 23.3628 6.373ZM10.9372 6.32212C10.9372 6.32212 10.8724 6.373 10.652 6.373C9.58656 6.373 7.55288 5.26596 6.88836 4.59681C6.24233 3.94616 6.24233 2.88538 6.88836 2.23472C7.20135 1.92019 7.6161 1.7475 8.05706 1.7475C8.49649 1.7475 8.91124 1.92019 9.22423 2.23472C10.2634 3.28008 11.2965 5.95054 10.9372 6.32212ZM14.4865 6.373C14.2676 6.373 14.2028 6.32366 14.2028 6.32212C13.8436 5.95054 14.8766 3.28008 15.9158 2.23472C16.5371 1.6072 17.6241 1.60411 18.2517 2.23472C18.8992 2.88538 18.8992 3.94616 18.2517 4.59681C17.5871 5.26596 15.5534 6.373 14.4865 6.373Z" fill="black"/>
<path d="M14.1113 12.5403V23.3331H21.8205C22.6716 23.3331 23.3623 22.6424 23.3623 21.7913V12.5403H14.1113Z" fill="black"/>
</svg>
