<svg width="21" height="22" viewBox="0 0 21 22" fill="none" xmlns="http://www.w3.org/2000/svg">
<path d="M17.7289 14.2206C16.6615 13.1069 15.3911 12.2824 14.005 11.7833C15.4896 10.7164 16.4649 8.93075 16.4649 6.91167C16.4649 3.65198 13.9234 1 10.7995 1C7.67566 1 5.13418 3.65198 5.13418 6.91167C5.13418 8.93075 6.1095 10.7164 7.59409 11.7833C6.20799 12.2824 4.93757 13.1069 3.87023 14.2206C2.01934 16.152 1 18.7198 1 21.4512H2.53118C2.53118 16.6938 6.24034 12.8233 10.7995 12.8233C15.3587 12.8233 19.0679 16.6938 19.0679 21.4512H20.5991C20.5991 18.7198 19.5797 16.152 17.7289 14.2206ZM10.7995 11.2256C8.51995 11.2256 6.66535 9.2904 6.66535 6.91167C6.66535 4.53294 8.51995 2.59775 10.7995 2.59775C13.0791 2.59775 14.9337 4.53294 14.9337 6.91167C14.9337 9.2904 13.0791 11.2256 10.7995 11.2256Z" fill="#FBE214" stroke="#FBE214" stroke-width="0.5" stroke-linecap="round" stroke-linejoin="round"/>
</svg>
