<svg id="Слой_1" data-name="Слой 1" xmlns="http://www.w3.org/2000/svg" xmlns:xlink="http://www.w3.org/1999/xlink" viewBox="0 0 297.6 284.1"><defs><style>.cls-1{fill:#f7e87e;}.cls-2{fill:#f9ae00;}.cls-3{fill:#010005;}.cls-4{fill:url(#Безымянный_градиент);}</style><linearGradient id="Безымянный_градиент" x1="148.6" y1="145.79" x2="148.82" y2="155.2" gradientTransform="matrix(1, 0, 0, -1, 0, 286)" gradientUnits="userSpaceOnUse"><stop offset="0" stop-color="#3b3b3a"/><stop offset="1" stop-color="#fff"/></linearGradient></defs><title>Монтажная область 1</title><polygon class="cls-1" points="142.9 141.8 140.2 158.6 131.1 175.2 115.5 192.7 121.9 202.1 153.1 194 164.2 186.5 173.1 168.7 177.1 147 174.6 125.7 166.4 110.6 149.4 92.1 147.9 81.4 137.2 81.2 138.7 92.3 143.2 113.1 142.9 141.8"/><path class="cls-2" d="M144.7,142.1,142,159.2c-3.1,5.7-6.3,11.3-9.4,17l-14.8,16.6,4.9,7.1,29.6-7.7,10.5-7,8.6-17.1,3.9-21.2-2.4-20.6L165,111.7,147.7,92.9l-1.3-9.6-6.8-.2,1.2,8.8,4.5,20.9-.3,29.1-.3.2ZM138.4,158l2.6-16.3.3-28.3-4.4-20.6c-.7-4.5-1.2-9-1.8-13.5l14.4.3,1.6,11.6,16.8,18.3,8.4,15.6c.8,7.3,1.7,14.6,2.5,21.9-1.4,7.4-2.7,14.9-4.1,22.3-3.1,6.2-6.2,12.3-9.3,18.5l-11.8,7.9c-10.9,2.9-21.8,5.7-32.8,8.6l-8-11.7,16.4-18.5Z"/><path class="cls-3" d="M142.8,148.1c9.3-.4,16.2,5.8,20.6,18.9a23.64,23.64,0,0,0-33.4-6.6C132.4,152.9,136.7,148.8,142.8,148.1Z"/><polygon class="cls-2" points="150.3 99.7 158.6 112.2 162.3 125 160.5 125.5 156.9 113 148.8 100.8 150.3 99.7"/><polygon class="cls-2" points="157.3 169.3 152.6 180.4 136.1 194.6 134.8 193.2 151 179.2 155.5 168.6 157.3 169.3"/><polygon class="cls-3" points="182.1 142 179.2 136.8 166.5 134.8 165.6 141.2 160.9 144.1 145.2 143 144.6 140.9 143.9 143.2 133.9 143.2 131.2 139.7 130.9 130.3 164 131.7 181 134.2 184.5 140.6 182.1 142"/><path class="cls-4" d="M143.4,135.6l.6-1.9-10.2-.4.2,5.4,1.3,1.7h6.6l1.5-4.8Zm19.6,3.9.7-5-18.1-.7,1.9,6.6,12.8.9Z"/></svg>