<svg width="72" height="126" viewBox="0 0 72 126" fill="none" xmlns="http://www.w3.org/2000/svg">
<path fill-rule="evenodd" clip-rule="evenodd" d="M30.1272 62.5854L27.4272 79.3854L18.3272 95.9854L2.72717 113.485L9.12717 122.885L40.3272 114.785L51.4272 107.285L60.3272 89.4854L64.3272 67.7854L61.8272 46.4854L53.6272 31.3854L36.6272 12.8854L35.1272 2.18536L24.4272 1.98535L25.9272 13.0854L30.4272 33.8854L30.1272 62.5854Z" fill="#F7E87E"/>
<path fill-rule="evenodd" clip-rule="evenodd" d="M31.9272 62.8855L29.2272 79.9854C26.1272 85.6854 22.9272 91.2854 19.8272 96.9854L5.02716 113.585L9.92715 120.685L39.5272 112.985L50.0272 105.985L58.6272 88.8855L62.5272 67.6854L60.1272 47.0854L52.2272 32.4854L34.9272 13.6854L33.6272 4.08545L26.8272 3.88544L28.0272 12.6854L32.5272 33.5854L32.2272 62.6854L31.9272 62.8855ZM25.6272 78.7854L28.2272 62.4854L28.5272 34.1854L24.1272 13.5854C23.4272 9.08545 22.9272 4.58545 22.3272 0.0854492L36.7272 0.385445L38.3272 11.9854L55.1272 30.2854C57.9272 35.4854 60.7272 40.6854 63.5272 45.8854C64.3272 53.1854 65.2272 60.4854 66.0272 67.7854C64.6272 75.1854 63.3272 82.6854 61.9272 90.0854C58.8272 96.2854 55.7272 102.385 52.6272 108.585L40.8272 116.485C29.9272 119.385 19.0272 122.185 8.02716 125.085L0.0271606 113.385L16.4272 94.8855L25.6272 78.7854Z" fill="#F9AE00"/>
<path fill-rule="evenodd" clip-rule="evenodd" d="M30.0272 68.8854C39.3272 68.4854 46.2272 74.6854 50.6272 87.7854C47.1272 82.3854 41.6272 78.5854 35.3272 77.3854C29.0272 76.0854 22.5272 77.4853 17.2272 81.1853C19.6272 73.6853 23.9272 69.5854 30.0272 68.8854Z" fill="#010005"/>
<path fill-rule="evenodd" clip-rule="evenodd" d="M37.5272 20.4854L45.8272 32.9854L49.5272 45.7854L47.7272 46.2854L44.1272 33.7854L36.0272 21.5854L37.5272 20.4854Z" fill="#F9AE00"/>
<path fill-rule="evenodd" clip-rule="evenodd" d="M44.5272 90.0853L39.8272 101.185L23.3272 115.385L22.0272 113.985L38.2272 99.9852L42.7272 89.3853L44.5272 90.0853Z" fill="#F9AE00"/>
<path fill-rule="evenodd" clip-rule="evenodd" d="M69.3271 62.7854L66.4271 57.5854L53.7271 55.5854L52.8271 61.9854L48.1271 64.8855L32.4271 63.7854L31.8271 61.6854L31.1271 63.9854H21.1271L18.4271 60.4854L18.1271 51.0854L51.2271 52.4854L68.2271 54.9854L71.7271 61.3855L69.3271 62.7854Z" fill="#010005"/>
<path fill-rule="evenodd" clip-rule="evenodd" d="M30.6272 56.3855L31.2272 54.4854L21.0272 54.0854L21.2272 59.4854L22.5272 61.1854H29.1272L30.6272 56.3855ZM50.2272 60.2854L50.9272 55.2854L32.8272 54.5854L34.7272 61.1854L47.5272 62.0854L50.2272 60.2854Z" fill="url(#paint0_linear)"/>
<defs>
<linearGradient id="paint0_linear" x1="35.802" y1="60.9979" x2="36.0263" y2="51.5816" gradientUnits="userSpaceOnUse">
<stop stop-color="#3B3B3A"/>
<stop offset="1" stop-color="white"/>
</linearGradient>
</defs>
</svg>
