<svg width="72" height="126" viewBox="0 0 72 126" fill="none" xmlns="http://www.w3.org/2000/svg">
<path fill-rule="evenodd" clip-rule="evenodd" d="M41.8728 62.5854L44.5728 79.3854L53.6728 95.9854L69.2728 113.485L62.8728 122.885L31.6728 114.785L20.5728 107.285L11.6728 89.4854L7.67279 67.7854L10.1728 46.4854L18.3728 31.3854L35.3728 12.8854L36.8728 2.18536L47.5728 1.98535L46.0728 13.0854L41.5728 33.8854L41.8728 62.5854Z" fill="#F7E87E"/>
<path fill-rule="evenodd" clip-rule="evenodd" d="M40.0728 62.8855L42.7728 79.9854C45.8728 85.6854 49.0728 91.2854 52.1728 96.9854L66.9728 113.585L62.0729 120.685L32.4728 112.985L21.9728 105.985L13.3728 88.8855L9.4728 67.6854L11.8728 47.0854L19.7728 32.4854L37.0728 13.6854L38.3728 4.08545L45.1728 3.88544L43.9728 12.6854L39.4728 33.5854L39.7728 62.6854L40.0728 62.8855ZM46.3728 78.7854L43.7728 62.4854L43.4728 34.1854L47.8728 13.5854C48.5728 9.08545 49.0728 4.58545 49.6728 0.0854492L35.2728 0.385445L33.6728 11.9854L16.8728 30.2854C14.0728 35.4854 11.2728 40.6854 8.4728 45.8854C7.6728 53.1854 6.7728 60.4854 5.9728 67.7854C7.3728 75.1854 8.6728 82.6854 10.0728 90.0854C13.1728 96.2854 16.2728 102.385 19.3728 108.585L31.1728 116.485C42.0728 119.385 52.9728 122.185 63.9728 125.085L71.9728 113.385L55.5728 94.8855L46.3728 78.7854Z" fill="#F9AE00"/>
<path fill-rule="evenodd" clip-rule="evenodd" d="M41.9728 68.8854C32.6728 68.4854 25.7728 74.6854 21.3728 87.7854C24.8728 82.3854 30.3728 78.5854 36.6728 77.3854C42.9728 76.0854 49.4728 77.4853 54.7728 81.1853C52.3728 73.6853 48.0728 69.5854 41.9728 68.8854Z" fill="#010005"/>
<path fill-rule="evenodd" clip-rule="evenodd" d="M34.4728 20.4854L26.1728 32.9854L22.4728 45.7854L24.2728 46.2854L27.8728 33.7854L35.9728 21.5854L34.4728 20.4854Z" fill="#F9AE00"/>
<path fill-rule="evenodd" clip-rule="evenodd" d="M27.4728 90.0853L32.1728 101.185L48.6728 115.385L49.9728 113.985L33.7728 99.9852L29.2728 89.3853L27.4728 90.0853Z" fill="#F9AE00"/>
<path fill-rule="evenodd" clip-rule="evenodd" d="M2.67292 62.7854L5.57292 57.5854L18.2729 55.5854L19.1729 61.9854L23.8729 64.8855L39.5729 63.7854L40.1729 61.6854L40.8729 63.9854H50.8729L53.5729 60.4854L53.8729 51.0854L20.7729 52.4854L3.77293 54.9854L0.272926 61.3855L2.67292 62.7854Z" fill="#010005"/>
<path fill-rule="evenodd" clip-rule="evenodd" d="M41.3728 56.3855L40.7728 54.4854L50.9728 54.0854L50.7728 59.4854L49.4728 61.1854H42.8728L41.3728 56.3855ZM21.7728 60.2854L21.0728 55.2854L39.1728 54.5854L37.2728 61.1854L24.4728 62.0854L21.7728 60.2854Z" fill="url(#paint0_linear)"/>
<defs>
<linearGradient id="paint0_linear" x1="36.198" y1="60.9979" x2="35.9737" y2="51.5816" gradientUnits="userSpaceOnUse">
<stop stop-color="#3B3B3A"/>
<stop offset="1" stop-color="white"/>
</linearGradient>
</defs>
</svg>
