<?xml version="1.0" encoding="utf-8"?>
<!-- Generator: Adobe Illustrator 21.1.0, SVG Export Plug-In . SVG Version: 6.00 Build 0)  -->
<svg version="1.1" id="Слой_1" xmlns="http://www.w3.org/2000/svg" xmlns:xlink="http://www.w3.org/1999/xlink" x="0px" y="0px"
	 viewBox="0 0 297.6 284.1" style="enable-background:new 0 0 297.6 284.1;" xml:space="preserve">
<style type="text/css">
	.st0{fill-rule:evenodd;clip-rule:evenodd;fill:#F7E87E;}
	.st1{fill-rule:evenodd;clip-rule:evenodd;fill:#F9AE00;}
	.st2{fill-rule:evenodd;clip-rule:evenodd;fill:#010005;}
	.st3{fill-rule:evenodd;clip-rule:evenodd;fill:url(#SVGID_1_);}
</style>
<g>
	<polygon class="st0" points="142.9,141.8 140.2,158.6 131.1,175.2 115.5,192.7 121.9,202.1 153.1,194 164.2,186.5 173.1,168.7 
		177.1,147 174.6,125.7 166.4,110.6 149.4,92.1 147.9,81.4 137.2,81.2 138.7,92.3 143.2,113.1 	"/>
	<path class="st1" d="M144.7,142.1l-2.7,17.1c-3.1,5.7-6.3,11.3-9.4,17l-14.8,16.6l4.9,7.1l29.6-7.7l10.5-7l8.6-17.1l3.9-21.2
		l-2.4-20.6l-7.9-14.6l-17.3-18.8l-1.3-9.6l-6.8-0.2l1.2,8.8l4.5,20.9l-0.3,29.1L144.7,142.1L144.7,142.1z M138.4,158l2.6-16.3
		l0.3-28.3l-4.4-20.6c-0.7-4.5-1.2-9-1.8-13.5l14.4,0.3l1.6,11.6l16.8,18.3c2.8,5.2,5.6,10.4,8.4,15.6c0.8,7.3,1.7,14.6,2.5,21.9
		c-1.4,7.4-2.7,14.9-4.1,22.3c-3.1,6.2-6.2,12.3-9.3,18.5l-11.8,7.9c-10.9,2.9-21.8,5.7-32.8,8.6l-8-11.7l16.4-18.5L138.4,158z"/>
	<path class="st2" d="M142.8,148.1c9.3-0.4,16.2,5.8,20.6,18.9c-3.5-5.4-9-9.2-15.3-10.4c-6.3-1.3-12.8,0.1-18.1,3.8
		C132.4,152.9,136.7,148.8,142.8,148.1z"/>
	<polygon class="st1" points="150.3,99.7 158.6,112.2 162.3,125 160.5,125.5 156.9,113 148.8,100.8 	"/>
	<polygon class="st1" points="157.3,169.3 152.6,180.4 136.1,194.6 134.8,193.2 151,179.2 155.5,168.6 	"/>
	<polygon class="st2" points="182.1,142 179.2,136.8 166.5,134.8 165.6,141.2 160.9,144.1 145.2,143 144.6,140.9 143.9,143.2 
		133.9,143.2 131.2,139.7 130.9,130.3 164,131.7 181,134.2 184.5,140.6 	"/>
	<linearGradient id="SVGID_1_" gradientUnits="userSpaceOnUse" x1="148.5748" y1="140.2125" x2="148.7991" y2="130.7962">
		<stop  offset="0" style="stop-color:#3B3B3A"/>
		<stop  offset="1" style="stop-color:#FFFFFF"/>
	</linearGradient>
	<path class="st3" d="M143.4,135.6l0.6-1.9l-10.2-0.4l0.2,5.4l1.3,1.7h6.6L143.4,135.6L143.4,135.6z M163,139.5l0.7-5l-18.1-0.7
		l1.9,6.6l12.8,0.9L163,139.5z"/>
</g>
</svg>
