<svg width="36" height="35" viewBox="0 0 36 35" fill="none" xmlns="http://www.w3.org/2000/svg">
<path d="M18.3597 3.41895C10.156 3.41895 3.51929 10.0556 3.51929 18.2593H33.2001C33.2001 10.0556 26.545 3.41895 18.3597 3.41895Z" fill="#4F4F4F"/>
<path d="M10.3218 9.98193H11.5938V14.517H13.806V15.5863H10.3218V9.98193Z" fill="white"/>
<path d="M19.355 12.7288C19.355 14.5539 18.2489 15.6784 16.6082 15.6784C14.949 15.6784 13.9719 14.4248 13.9719 12.8394C13.9719 11.1618 15.0412 9.9082 16.7003 9.9082C18.4148 9.9082 19.355 11.1802 19.355 12.7288ZM15.3177 12.8025C15.3177 13.8902 15.8339 14.6645 16.6819 14.6645C17.5299 14.6645 18.0277 13.8534 18.0277 12.7657C18.0277 11.7702 17.5484 10.9037 16.6819 10.9037C15.8155 10.9037 15.3177 11.7149 15.3177 12.8025Z" fill="white"/>
<path d="M21.0327 15.5863L19.7053 9.98193H21.0511L21.4751 12.2863C21.6042 12.95 21.7148 13.669 21.8069 14.2405H21.8254C21.9176 13.6321 22.0466 12.9684 22.1941 12.2679L22.6734 9.98193H24.0192L24.4616 12.3416C24.5907 13.0053 24.6828 13.5952 24.7566 14.222H24.775C24.8672 13.5952 24.9778 12.95 25.1069 12.2863L25.5677 10.0004H26.8582L25.4018 15.5863H24.0376L23.5583 13.1897C23.4477 12.6182 23.3555 12.102 23.3002 11.4568H23.2818C23.1896 12.0836 23.0974 12.6182 22.9499 13.1897L22.4153 15.5863H21.0327Z" fill="white"/>
<path d="M31.1537 6.94C29.1258 4.54342 26.4158 2.69989 23.4293 1.72282C20.4612 0.727313 17.2535 0.598266 14.3038 1.22507C11.3542 1.85187 8.66264 3.25295 6.56101 5.09647C4.44096 6.94 2.89239 9.18911 1.91532 11.4935C0.95669 13.7795 0.551113 16.1023 0.532678 18.1671C0.514243 20.2318 0.864513 22.0754 1.30696 23.5502C2.24716 26.5183 3.48232 28.1037 3.68511 28.4355C3.98008 28.8595 4.29348 29.2467 4.62531 29.5785L3.24266 31.4774L6.81911 31.8461L8.73638 32.0489L9.17882 32.0857C9.76875 32.4729 10.709 33.0259 12.0179 33.5974C13.2346 34.0952 14.7831 34.5745 16.6082 34.7588C16.9954 34.7957 17.401 34.8326 17.825 34.8326C19.3551 34.8879 21.0327 34.722 22.7656 34.2426C24.9594 33.6527 27.2454 32.5282 29.2364 30.8137C31.2274 29.0992 32.9419 26.8132 34.0111 24.1032C35.0804 21.4117 35.4491 18.333 34.9698 15.2912C34.5273 12.3047 33.2 9.35502 31.1537 6.94ZM12.0916 33.5237C10.7827 33.0075 9.86093 32.4913 9.25256 32.1226L10.4324 32.2516L8.9576 28.9702L7.48278 25.6887L6.04483 27.6613C5.91578 27.4769 5.7683 27.2925 5.63925 27.0898C5.47333 26.7948 4.36722 25.4675 3.48232 22.8865C3.05831 21.596 2.70804 20.0106 2.68961 18.204C2.67117 16.3973 2.96614 14.3325 3.77729 12.2862C4.58844 10.2399 5.91578 8.1936 7.77774 6.49756C9.62127 4.80151 11.9994 3.47417 14.6725 2.84737C17.3272 2.20214 20.2584 2.25744 23.0053 3.10546C25.7521 3.93505 28.3146 5.57579 30.2503 7.76959C32.2045 9.96339 33.5134 12.6918 34.0296 15.5493C34.5458 18.3883 34.2692 21.338 33.329 23.9189C32.3888 26.5183 30.8034 28.7674 28.9046 30.4634C27.0057 32.1595 24.8304 33.3025 22.6919 33.9477C18.3596 35.2013 14.4882 34.4454 12.0916 33.5237Z" fill="#4F4F4F"/>
<path d="M13.9536 27.3477L14.3223 28.804L15.8156 28.7119L14.5436 29.5046L15.0966 30.9057L13.9536 29.947L12.7922 30.9057L13.3453 29.5046L12.0732 28.7119L13.5665 28.804L13.9536 27.3477Z" fill="#4F4F4F"/>
<path d="M18.4701 27.9009L18.8388 29.3573L20.3321 29.2651L19.0785 30.0578L19.6315 31.4589L18.4701 30.5003L17.3087 31.4589L17.8618 30.0578L16.6082 29.2651L18.1014 29.3573L18.4701 27.9009Z" fill="#4F4F4F"/>
<path d="M22.987 27.3477L23.3741 28.804L24.8674 28.7119L23.5953 29.5046L24.1484 30.9057L22.987 29.947L21.844 30.9057L22.3786 29.5046L21.125 28.7119L22.6183 28.804L22.987 27.3477Z" fill="#4F4F4F"/>
<path d="M19.3919 26.0021C18.9495 26.1496 18.1015 26.3708 17.2534 26.3708C16.092 26.3708 15.244 26.0759 14.6541 25.5044C14.0641 24.9513 13.7507 24.1217 13.7507 23.1815C13.7692 21.0615 15.2993 19.8447 17.4009 19.8447C18.2305 19.8447 18.8573 20.0106 19.1707 20.1581L18.8757 21.3195C18.5255 21.1721 18.083 21.043 17.3825 21.043C16.1842 21.043 15.2624 21.7251 15.2624 23.1078C15.2624 24.4167 16.092 25.2094 17.2719 25.2094C17.6037 25.2094 17.8618 25.1725 17.9908 25.1172V23.7899H17.0138V22.6653H19.3919V26.0021V26.0021Z" fill="#4F4F4F"/>
<path d="M21.973 19.8999V26.2785H20.5166V19.8999H21.973Z" fill="#4F4F4F"/>
</svg>
