<svg width="34" height="35" viewBox="0 0 34 35" fill="none" xmlns="http://www.w3.org/2000/svg">
<path d="M28.8752 5.82687C25.5905 2.50141 21.2984 0.842773 17.0062 0.842773C12.7018 0.842773 8.4096 2.50141 5.13724 5.82687C1.85259 9.14005 0.214355 13.4853 0.214355 17.8428C0.214355 22.188 1.85259 26.5455 5.13724 29.8587C8.4096 33.1719 12.7018 34.8428 17.0062 34.8428C21.2984 34.8428 25.5905 33.1759 28.8752 29.8587C32.1476 26.5455 33.7858 22.188 33.7858 17.8428C33.7858 13.4853 32.1476 9.14005 28.8752 5.82687ZM27.7899 28.7611C24.8083 31.7794 20.9052 33.2824 17.0062 33.2824C13.3325 33.2824 9.66694 31.9555 6.76318 29.2976L11.2188 24.7975C10.8297 24.4699 10.3955 24.1832 9.84264 24.0071L5.69014 28.2C3.05668 25.2595 1.7461 21.5491 1.7461 17.8387C1.7461 13.8866 3.23279 9.92637 6.21028 6.90806C9.18776 3.90613 13.0908 2.39083 17.0062 2.39083C20.6718 2.39083 24.3332 3.71774 27.237 6.38385L22.3842 11.6441C22.5808 11.7629 22.7855 11.9062 23.0149 12.0618C23.2442 12.2175 23.4613 12.369 23.6661 12.5328L28.3223 7.48142C30.9435 10.4096 32.2581 14.1201 32.2581 17.8428C32.254 21.7948 30.7714 25.7428 27.7899 28.7611Z" fill="#4F4F4F"/>
<path d="M20.6147 25.8007C20.6734 25.6932 20.6929 25.5759 20.6538 25.4587C20.5952 25.2633 20.4193 25.1265 20.2141 25.1265C20.175 25.1265 20.1262 25.1362 20.0871 25.146L17.3805 25.8984L14.674 25.1558C14.6349 25.146 14.586 25.1362 14.5469 25.1362C14.3418 25.1362 14.1659 25.273 14.1072 25.4685C14.0779 25.5857 14.0877 25.7127 14.1463 25.8104C14.205 25.9179 14.3027 25.9961 14.4199 26.0254L15.6608 26.3674L14.4199 26.7094C14.3027 26.7387 14.205 26.8168 14.1463 26.9243C14.0877 27.0318 14.0682 27.1491 14.1072 27.2663C14.1659 27.4617 14.3418 27.5985 14.5469 27.5985C14.5958 27.5985 14.6349 27.5888 14.6642 27.579L17.3708 26.8266L20.0773 27.5692C20.1164 27.579 20.1555 27.5888 20.2044 27.5888C20.4095 27.5888 20.5854 27.452 20.6441 27.2565C20.6734 27.1393 20.6636 27.0123 20.605 26.9048C20.5463 26.7973 20.4486 26.7191 20.3314 26.6898L19.0905 26.3478L20.3314 26.0059C20.4584 25.9765 20.5561 25.9081 20.6147 25.8007Z" fill="#424243"/>
<path d="M24.5718 16.4113H23.7119V16.1573C24.093 16.0205 24.3568 15.659 24.3568 15.2388C24.3568 14.7014 23.9171 14.2617 23.3797 14.2617H22.7642C22.7544 14.2617 22.7446 14.2617 22.7348 14.2617H21.6014H21.4744H13.296H13.0518C13.042 14.2617 13.0225 14.2617 13.0127 14.2617C13.0029 14.2617 12.9931 14.2617 12.9834 14.2617H12.1235C12.104 14.2617 12.0747 14.2715 12.0551 14.2715C12.0356 14.2715 12.016 14.2715 12.0063 14.2617H11.3907C10.8533 14.2617 10.4136 14.7014 10.4136 15.2388C10.4136 15.659 10.6774 16.0205 11.0585 16.1573V16.4113H10.1986C9.55375 16.4113 9.03589 16.9292 9.03589 17.5741C9.03589 18.2092 9.55375 18.7368 10.1986 18.7368H11.0585V21.3164C11.0585 22.2055 11.3712 23.0459 11.9379 23.7201C11.9574 23.7396 11.977 23.7689 11.9965 23.7885C11.9965 23.7885 11.9965 23.7885 12.0063 23.7885C12.0551 23.8373 12.0942 23.8862 12.1333 23.9448C12.1431 23.9546 12.1431 23.9546 12.1528 23.9643C12.2212 24.0132 12.2994 24.0816 12.3189 24.0914C12.4167 24.1597 12.5437 24.2575 12.6512 24.3649C12.6609 24.3649 12.6609 24.3747 12.6707 24.3747C13.296 24.8144 14.0484 25.0489 14.8106 25.0489H19.9794C20.7416 25.0489 21.4842 24.8144 22.1095 24.3845C22.1779 24.3259 22.2463 24.2672 22.3245 24.2086C22.2756 24.2477 22.344 24.1891 22.3635 24.1793C22.3929 24.1597 22.4124 24.1402 22.4417 24.1109C22.5003 24.062 22.559 24.0132 22.6176 23.9546C22.6371 23.935 22.6664 23.9155 22.686 23.8959C22.6958 23.8862 22.6958 23.8862 22.7055 23.8764L22.8032 23.7591C23.3993 23.0752 23.7217 22.2153 23.7217 21.3066V18.7271H24.5816C25.2264 18.7271 25.7443 18.2092 25.7443 17.5643C25.7248 16.9292 25.2069 16.4113 24.5718 16.4113ZM20.5657 15.1704L17.3803 18.3558L14.195 15.1704H20.5657ZM12.6316 23.1142C12.2115 22.6062 11.977 21.9808 11.977 21.3066V18.2678C11.977 18.0138 11.7718 17.8086 11.5177 17.8086H10.2084C10.0716 17.8086 9.95436 17.7011 9.95436 17.5545C9.95436 17.4178 10.0618 17.3005 10.2084 17.3005H11.5177C11.7718 17.3005 11.977 17.0953 11.977 16.8413V15.7371C11.977 15.4831 11.7718 15.2779 11.5177 15.2779H11.3907C11.3516 15.2779 11.3223 15.2486 11.3223 15.2095C11.3223 15.1704 11.3516 15.1411 11.3907 15.1411H12.915L16.7452 18.9713L12.6316 23.1142ZM19.9696 24.1402H14.8008C14.2731 24.1402 13.7651 23.9936 13.3156 23.7201L17.3901 19.6455L21.4548 23.7103C21.0151 23.9936 20.5071 24.1402 19.9696 24.1402ZM24.5718 17.8184H23.2625C23.0084 17.8184 22.8032 18.0236 22.8032 18.2776V21.3164C22.8032 21.9808 22.5687 22.6159 22.1486 23.124L18.035 19.0007L21.8652 15.1704H23.3895C23.4286 15.1704 23.4579 15.1997 23.4579 15.2388C23.4579 15.2779 23.4286 15.3072 23.3895 15.3072H23.2625C23.0084 15.3072 22.8032 15.5124 22.8032 15.7665V16.8706C22.8032 17.1246 23.0084 17.3298 23.2625 17.3298H24.5718C24.7086 17.3298 24.8258 17.4373 24.8258 17.5839C24.8161 17.7011 24.7086 17.8184 24.5718 17.8184Z" fill="#424243"/>
<path d="M22.6958 23.8663C22.6958 23.8663 22.7049 23.8573 22.6958 23.8663V23.8663Z" fill="#424243"/>
<path d="M20.6634 13.4605C20.7514 13.5386 20.8589 13.5777 20.9761 13.5777C21.1031 13.5777 21.2204 13.5289 21.3083 13.4312C21.4744 13.2455 21.4647 12.9622 21.279 12.7863C20.7514 12.2977 19.9892 10.9591 20.8589 9.39574C22.1193 7.10932 21.3376 5.78047 21.2497 5.6339C21.1618 5.50688 21.025 5.42871 20.8686 5.42871C20.7807 5.42871 20.6928 5.45802 20.6244 5.49711C20.4094 5.6339 20.3508 5.91726 20.4778 6.12245C20.4973 6.16154 21.0543 7.14841 20.0674 8.95604C18.9242 11.0177 19.9502 12.8058 20.6634 13.4605Z" fill="#424243"/>
<path d="M13.6282 13.8217C13.7162 13.9292 13.8529 13.9976 13.9897 13.9976C14.0874 13.9976 14.1852 13.9683 14.2633 13.8999C14.4587 13.7533 14.4978 13.4602 14.3513 13.2648C14.322 13.2257 13.5696 12.1704 14.8984 10.1381C16.4129 7.84187 15.0548 5.86813 14.1265 5.14507C14.0484 5.08645 13.9507 5.04736 13.8432 5.04736C13.7064 5.04736 13.5696 5.11576 13.4816 5.22324C13.3253 5.41866 13.3644 5.71179 13.5598 5.85836C14.2633 6.40553 15.2795 7.89073 14.1363 9.63974C12.4459 12.2291 13.5794 13.7631 13.6282 13.8217Z" fill="#424243"/>
<path d="M16.8819 12.4829C16.7842 12.5611 16.7256 12.6686 16.706 12.7858C16.6865 12.9031 16.7256 13.0301 16.794 13.118C16.8819 13.2255 17.0089 13.2939 17.1555 13.2939C17.2532 13.2939 17.3509 13.2646 17.4389 13.1962C18.0838 12.6979 19.0218 11.3299 17.9763 9.73726C17.1848 8.52566 17.5952 7.91008 17.6147 7.89054C17.7613 7.69512 17.7222 7.40199 17.5268 7.25542C17.4486 7.1968 17.3509 7.15771 17.2532 7.15771C17.1067 7.15771 16.9796 7.22611 16.8917 7.33359C16.8624 7.39222 16.0612 8.4768 17.2239 10.2454C17.8981 11.2811 17.3021 12.1605 16.8819 12.4829Z" fill="#424243"/>
<path d="M10.8306 15.6283V14.8903L23.6301 14.5601L23.7272 15.1039C23.7272 15.2787 23.7078 15.6283 23.6301 15.6283C23.533 15.6283 23.2805 15.8808 23.1639 15.8808C23.0707 15.8808 23.0603 16.1268 23.0668 16.2498L23.397 16.8131H24.6595C24.8149 16.8131 25.0609 16.9426 25.1645 17.0073L25.3393 18.0561L24.3487 18.1921L23.397 18.2892L23.0668 18.9884C23.0992 19.3575 23.1445 20.1149 23.0668 20.1926C22.9697 20.2897 23.1834 21.8435 23.1639 22.096C23.1445 22.3485 22.7172 23.3779 22.6395 23.4751C22.5774 23.5527 21.513 24.1031 20.9886 24.3685C20.0628 24.485 18.1878 24.7181 18.0946 24.7181H15.2201C15.0958 24.7181 13.6274 24.1872 12.9088 23.9218L11.9765 23.0672L11.588 18.6L10.6752 18.4834L9.43213 17.8231L10.0925 17.0073L11.588 16.8131L11.7434 15.8808L10.8306 15.6283Z" fill="#424243"/>
</svg>
