<svg width="30" height="30" viewBox="0 0 30 30" fill="none" xmlns="http://www.w3.org/2000/svg">
<path d="M25.6118 4.38848C28.5361 7.32377 30 11.1592 30 14.9946C30 18.8408 28.5361 22.6762 25.6118 25.6115C22.6766 28.536 18.841 30 15.0055 30C11.159 30 7.32341 28.536 4.39917 25.6115C1.46395 22.6762 0 18.8408 0 14.9946C0 11.1592 1.46395 7.32377 4.39917 4.38848C7.32341 1.46403 11.159 0 15.0055 0C18.841 0 22.6766 1.46403 25.6118 4.38848ZM6.85861 12.4678V19.036C6.85861 19.8096 7.20629 20.1783 7.83579 20.5579L13.3585 23.88C13.7282 24.1113 14.2406 24.3065 14.2406 23.7065V23.1932C14.3101 21.3351 14.2406 17.1201 14.2406 16.1333C14.2406 15.7465 13.9002 15.3778 13.5818 15.2042L7.79919 12.0665C7.28681 11.7701 6.85861 11.7484 6.85861 12.4678ZM22.1715 20.5543L16.6488 23.8764C16.2718 24.1077 15.7594 24.3029 15.7594 23.7029V23.1895C15.6899 21.3315 15.7594 17.1165 15.7594 16.1297C15.7594 15.7429 16.0998 15.3741 16.4292 15.2006L22.2118 12.0629C22.7168 11.7737 23.1414 11.752 23.1414 12.4714V19.0396C23.1414 19.8096 22.7937 20.1783 22.1715 20.5543ZM13.7941 13.892L8.12858 10.8013C7.91631 10.6965 7.70404 10.588 7.53934 10.4832C7.14042 10.2591 7.22093 10.0386 7.41491 9.8542C7.67476 9.60116 8.2091 9.38788 8.56777 9.18544L13.8673 6.28991C14.731 5.76575 15.28 5.76575 16.1437 6.28991L21.4505 9.18544C21.8092 9.38788 22.3326 9.60116 22.5924 9.8542C22.7864 10.0386 22.8632 10.2627 22.468 10.4832C22.3143 10.588 22.091 10.6965 21.8861 10.8013L16.2096 13.892C15.2397 14.4523 14.7639 14.4523 13.7941 13.892ZM25.1177 5.85251L22.6766 8.29256C22.5888 8.24557 22.4936 8.19496 22.4058 8.14797C22.2813 8.09013 22.1642 8.03229 22.1056 7.99253L21.4176 7.61297L24.1479 4.89095C21.553 2.53766 18.2774 1.36643 15.0055 1.36643C11.5103 1.36643 8.02245 2.6931 5.35806 5.35727C2.69367 8.02145 1.36879 11.5098 1.36879 14.9946C1.36879 18.2769 2.53995 21.552 4.89325 24.1475L7.24655 21.7833L8.45797 22.5099L5.85214 25.1054C8.44699 27.4587 11.7226 28.63 15.0055 28.63C18.4934 28.63 21.9812 27.3033 24.6419 24.6391C27.3063 21.9749 28.6312 18.4866 28.6312 14.991C28.6349 11.7195 27.4637 8.44801 25.1177 5.85251Z" fill="#4F4F4F"/>
</svg>
