<svg width="22" height="21" viewBox="0 0 22 21" fill="none" xmlns="http://www.w3.org/2000/svg">
<path d="M20.8779 19.4005L15.0681 13.5906C16.17 12.2302 16.8334 10.5007 16.8334 8.61763C16.8334 4.25238 13.2819 0.700928 8.91666 0.700928C4.55141 0.700928 1 4.25238 1 8.61763C1 12.9829 4.55145 16.5343 8.9167 16.5343C10.7998 16.5343 12.5293 15.871 13.8897 14.769L19.6996 20.5789C19.8624 20.7416 20.1261 20.7416 20.2889 20.5789L20.878 19.9898C21.0407 19.827 21.0407 19.5632 20.8779 19.4005ZM8.9167 14.8676C5.47025 14.8676 2.66668 12.0641 2.66668 8.61763C2.66668 5.17117 5.47025 2.36761 8.9167 2.36761C12.3632 2.36761 15.1667 5.17117 15.1667 8.61763C15.1667 12.0641 12.3632 14.8676 8.9167 14.8676Z" fill="#8E8E90" stroke="#8E8E90" stroke-width="0.5"/>
</svg>
