<svg width="17" height="20" viewBox="0 0 17 20" fill="none" xmlns="http://www.w3.org/2000/svg">
<path d="M7.25572 3.16073L4.33906 0.244062C4.01406 -0.0813541 3.48573 -0.0813541 3.16073 0.244062L0.244062 3.16073C-0.0813541 3.48614 -0.0813541 4.01364 0.244062 4.33906C0.569062 4.66447 1.09739 4.66447 1.42239 4.33906L2.91656 2.84489V19.1665C2.91656 19.6265 3.28989 19.9999 3.74989 19.9999C4.20989 19.9999 4.58323 19.6265 4.58323 19.1665V2.84489L6.07739 4.33906C6.23989 4.50197 6.45322 4.58322 6.66656 4.58322C6.87989 4.58322 7.09322 4.50197 7.25572 4.33906C7.58114 4.01364 7.58114 3.48614 7.25572 3.16073Z" fill="black"/>
<path d="M15.7831 15.6608C15.4577 15.3354 14.9302 15.3354 14.6047 15.6608L13.1106 17.155V0.833333C13.1106 0.373333 12.7372 0 12.2772 0C11.8172 0 11.4439 0.373333 11.4439 0.833333V17.155L9.94974 15.6608C9.62432 15.3354 9.09641 15.3354 8.77141 15.6608C8.44599 15.9862 8.44599 16.5137 8.77141 16.8392L11.6881 19.7558C11.851 19.9187 12.0639 20 12.2772 20C12.4906 20 12.7035 19.9187 12.8664 19.7558L15.7831 16.8392C16.1085 16.5137 16.1085 15.9862 15.7831 15.6608Z" fill="black"/>
</svg>
