<svg width="28" height="26" viewBox="0 0 28 26" fill="none" xmlns="http://www.w3.org/2000/svg">
<path d="M0.247517 8.57174C0.446033 8.33685 0.737518 8.20144 1.0447 8.20144H3.94484L9.6404 0.427387C9.98204 -0.0392006 10.6357 -0.138667 11.1007 0.202971C11.566 0.545322 11.6659 1.20076 11.3246 1.66663L6.53693 8.20149H21.7416L16.9539 1.66663C16.6123 1.20038 16.7129 0.545322 17.1778 0.202971C17.6428 -0.139051 18.2968 -0.0385429 18.6384 0.427387L24.3341 8.20149H26.9552C27.2624 8.20149 27.5539 8.33691 27.7524 8.57179C27.9509 8.80668 28.0363 9.11691 27.9858 9.42052L25.3738 25.1251C25.2899 25.6297 24.8539 26 24.3434 26H3.65669C3.1458 26 2.7101 25.6301 2.62621 25.1251L0.0142727 9.42052C-0.036314 9.11724 0.0489998 8.80662 0.247517 8.57174ZM4.54154 23.9061H23.4583L25.722 10.2954H2.27785L4.54154 23.9061Z" fill="black"/>
<path d="M14.0002 12.7385C14.5772 12.7385 15.0449 13.2072 15.0449 13.7855V20.6606C15.0449 21.2389 14.5772 21.7076 14.0002 21.7076C13.4231 21.7076 12.9554 21.2393 12.9554 20.6606V13.7855C12.9554 13.2072 13.4231 12.7385 14.0002 12.7385Z" fill="black"/>
<path d="M8.60173 12.7385C9.17879 12.7385 9.64648 13.2072 9.64648 13.7855V20.6606C9.64648 21.2389 9.17879 21.7076 8.60173 21.7076C8.02461 21.7076 7.55692 21.2393 7.55698 20.6606V13.7855C7.55698 13.2072 8.02467 12.7385 8.60173 12.7385Z" fill="black"/>
<path d="M19.3976 12.7385C19.9747 12.7385 20.4424 13.2072 20.4424 13.7855V20.6606C20.4424 21.2389 19.9747 21.7076 19.3976 21.7076C18.8206 21.7076 18.3529 21.2393 18.3529 20.6606V13.7855C18.3529 13.2072 18.8206 12.7385 19.3976 12.7385Z" fill="black"/>
</svg>
