<svg width="21" height="22" viewBox="0 0 21 22" fill="none" xmlns="http://www.w3.org/2000/svg">
<path d="M19.6715 1H1.8404C1.52591 0.999407 1.23759 1.17509 1.09383 1.45488C0.948084 1.73844 0.973664 2.0799 1.15986 2.33887L7.69242 11.5412C7.6946 11.5444 7.69698 11.5474 7.69916 11.5506C7.93651 11.871 8.06481 12.2591 8.0656 12.658V20.1606C8.06421 20.3829 8.15146 20.5963 8.30811 20.7539C8.46477 20.9116 8.67773 21 8.89982 21C9.01285 21 9.12449 20.9774 9.22879 20.9342L12.8996 19.5344C13.2285 19.4341 13.4469 19.1238 13.4469 18.75V12.658C13.4475 12.2593 13.576 11.871 13.8131 11.5506C13.8153 11.5474 13.8177 11.5444 13.8199 11.5412L20.3522 2.33848C20.5384 2.07971 20.564 1.73844 20.4182 1.45488C20.2745 1.17509 19.9862 0.999407 19.6715 1ZM12.9946 10.9491C12.6297 11.4443 12.4324 12.0429 12.4312 12.658V18.6266L9.08086 19.904V12.658C9.07967 12.0429 8.88237 11.4443 8.51731 10.9491L2.17532 2.01526H19.3368L12.9946 10.9491Z" fill="black" stroke="black" stroke-width="0.5"/>
</svg>
