<svg width="21" height="21" viewBox="0 0 21 21" fill="none" xmlns="http://www.w3.org/2000/svg">
<path d="M14.6334 10.625C14.6334 12.9875 12.7183 14.9026 10.3558 14.9026C7.99325 14.9026 6.07812 12.9875 6.07812 10.625C6.07812 8.26242 7.99325 6.34729 10.3558 6.34729C12.7183 6.34729 14.6334 8.26242 14.6334 10.625Z" fill="#4F4F4F"/>
<path d="M20.2043 3.17466C20.0019 2.62614 19.679 2.12966 19.2594 1.72214C18.8518 1.30253 18.3557 0.979601 17.8068 0.777181C17.3617 0.604303 16.693 0.398527 15.4614 0.342467C14.1291 0.281708 13.7296 0.268616 10.3566 0.268616C6.98329 0.268616 6.58383 0.281372 5.25182 0.342131C4.02019 0.398527 3.35116 0.604303 2.90638 0.777181C2.35753 0.979601 1.86105 1.30253 1.45386 1.72214C1.03425 2.12966 0.711321 2.62581 0.508566 3.17466C0.335687 3.61978 0.129911 4.2888 0.0738511 5.52044C0.0130918 6.85244 0 7.25191 0 10.6252C0 13.9982 0.0130918 14.3977 0.0738511 15.73C0.129911 16.9617 0.335687 17.6303 0.508566 18.0755C0.711321 18.6243 1.03392 19.1205 1.45352 19.528C1.86105 19.9476 2.35719 20.2705 2.90604 20.4729C3.35116 20.6462 4.02019 20.8519 5.25182 20.908C6.58383 20.9687 6.98296 20.9815 10.3563 20.9815C13.7299 20.9815 14.1294 20.9687 15.4611 20.908C16.6927 20.8519 17.3617 20.6462 17.8068 20.4729C18.9086 20.048 19.7793 19.1772 20.2043 18.0755C20.3772 17.6303 20.583 16.9617 20.6394 15.73C20.7001 14.3977 20.7129 13.9982 20.7129 10.6252C20.7129 7.25191 20.7001 6.85244 20.6394 5.52044C20.5833 4.2888 20.3775 3.61978 20.2043 3.17466ZM10.3566 17.1117C6.77383 17.1117 3.86946 14.2077 3.86946 10.6249C3.86946 7.04211 6.77383 4.13808 10.3566 4.13808C13.9391 4.13808 16.8434 7.04211 16.8434 10.6249C16.8434 14.2077 13.9391 17.1117 10.3566 17.1117ZM17.0999 5.39758C16.2627 5.39758 15.5839 4.71882 15.5839 3.88161C15.5839 3.04441 16.2627 2.36565 17.0999 2.36565C17.9371 2.36565 18.6159 3.04441 18.6159 3.88161C18.6155 4.71882 17.9371 5.39758 17.0999 5.39758Z" fill="#4F4F4F"/>
</svg>
