<svg width="31" height="27" viewBox="0 0 31 27" fill="none" xmlns="http://www.w3.org/2000/svg">
<path d="M28.3345 2.65015C26.7963 1.00938 24.6857 0.105713 22.391 0.105713C20.6758 0.105713 19.105 0.639037 17.7221 1.69075C17.0243 2.22162 16.392 2.87111 15.8346 3.62918C15.2773 2.87133 14.6448 2.22162 13.9468 1.69075C12.5642 0.639037 10.9933 0.105713 9.27811 0.105713C6.98343 0.105713 4.87261 1.00938 3.33444 2.65015C1.81463 4.27175 0.977417 6.4871 0.977417 8.88839C0.977417 11.3599 1.91392 13.6223 3.92454 16.0085C5.7232 18.1429 8.30828 20.3096 11.3019 22.8186C12.3241 23.6754 13.4828 24.6467 14.6859 25.6812C15.0037 25.955 15.4115 26.1057 15.8346 26.1057C16.2574 26.1057 16.6654 25.955 16.9828 25.6816C18.1859 24.6469 19.3453 23.6752 20.3679 22.8179C23.3611 20.3094 25.9462 18.1429 27.7448 16.0082C29.7554 13.6223 30.6917 11.3599 30.6917 8.88817C30.6917 6.4871 29.8545 4.27175 28.3345 2.65015Z" fill="#FF5C00"/>
</svg>
