<svg width="30" height="30" viewBox="0 0 30 30" fill="none" xmlns="http://www.w3.org/2000/svg">
<path d="M25.6024 4.39465C28.5256 7.3184 30 11.1637 30 14.9982C30 18.8327 28.5293 22.678 25.6024 25.6017C22.6756 28.5399 18.8341 30 15 30C11.1659 30 7.32073 28.5363 4.39756 25.6017C1.46341 22.678 0 18.8363 0 14.9982C0 11.1637 1.46341 7.3184 4.39756 4.39465C7.32073 1.47091 11.1659 0 15 0C18.8341 0 22.6756 1.47091 25.6024 4.39465ZM18.0293 23.4153C22.6756 20.6541 22.339 13.2273 19.811 9.15793C18.3293 6.76545 16.6244 5.81858 15 5.84749C13.372 5.81858 11.6707 6.76906 10.189 9.15793C7.66098 13.2237 7.32439 20.6541 11.9707 23.4153C12.6476 23.8236 13.6463 24.1525 14.6707 24.1525C14.8939 24.1525 15.1061 24.1525 15.3293 24.1525C16.3463 24.1525 17.3524 23.8236 18.0293 23.4153ZM25.1085 5.85833L21.5268 9.43983C21.3915 9.15793 21.2378 8.87965 21.0805 8.61583L20.9634 8.43151H20.9744C20.9268 8.35562 20.8793 8.27611 20.828 8.20745L24.139 4.88616C21.5524 2.54427 18.2707 1.36971 15 1.36971C11.5134 1.36971 8.01951 2.69606 5.36707 5.3596C2.7 8.02674 1.36463 11.5143 1.36463 14.9982C1.36463 18.2725 2.53537 21.554 4.8878 24.1417L8.04512 20.983C8.25 21.4203 8.48049 21.8251 8.7439 22.2118L5.85732 25.1066C8.4439 27.4593 11.7256 28.6303 14.9963 28.6303C18.4829 28.6303 21.9695 27.2931 24.6293 24.6296C27.2927 21.9769 28.628 18.4785 28.628 14.9946C28.6317 11.7275 27.45 8.44236 25.1085 5.85833Z" fill="#4F4F4F"/>
</svg>
