<svg width="30" height="30" viewBox="0 0 30 30" fill="none" xmlns="http://www.w3.org/2000/svg">
<path d="M25.6113 4.38848C28.5359 7.32377 30 11.1592 30 14.9946C30 18.8408 28.5359 22.6762 25.6113 25.6115C22.6757 28.536 18.8397 30 14.9927 30C11.1567 30 7.32064 28.536 4.38507 25.6115C1.46047 22.6762 0 18.8408 0 14.9946C0 11.1592 1.46413 7.32377 4.38873 4.38848C7.3243 1.46403 11.1603 0 14.9963 0C18.8397 0 22.6757 1.46403 25.6113 4.38848ZM14.9963 11.9038C15.3258 11.9038 16.1493 10.635 16.3031 10.3531C17.1376 8.92879 17.0388 7.09965 16.3324 5.68261C16.0615 5.12953 15.4612 4.3451 14.9963 4.03422C14.1435 4.60537 13.2723 6.15616 13.1662 7.25871C13.1369 7.51898 13.0966 7.76118 13.0893 7.96722C13.071 8.58899 13.3785 9.77829 13.6713 10.3097C13.8324 10.6278 14.6852 11.9038 14.9963 11.9038ZM15.1794 15.8368C15.4795 15.6923 18.8397 15.3127 20.0988 12.775C20.5051 11.9725 20.593 11.3218 20.593 10.2952C19.7584 10.2771 19.0227 9.88673 17.5037 10.6531C15.4392 11.6833 15.1794 13.7149 15.1794 15.8368ZM9.39605 10.2988C9.39605 11.3363 9.47291 11.9472 9.90117 12.7786C10.4539 13.8812 11.5483 14.7451 12.7123 15.2115C13.2833 15.4356 14.0886 15.7718 14.8243 15.7718C14.8243 13.545 14.5132 11.6436 12.3829 10.588C10.9736 9.89035 10.1318 10.2771 9.39605 10.2988ZM9.39605 15.5368C9.39605 18.1034 10.7247 19.3939 12.7379 20.3012C13.1442 20.4856 14.2789 20.8832 14.8206 20.8905C14.8206 19.2818 14.7145 17.966 13.8141 16.7839C13.2906 16.1043 12.0717 15.291 10.8895 15.291C10.4905 15.2946 9.39605 15.197 9.39605 15.5368ZM9.39605 20.4784C9.39605 21.4182 9.51318 22.0978 9.80234 22.763C10.3441 24.0137 11.4788 24.8271 12.6794 25.3585C13.1332 25.5718 14.1911 25.9585 14.8206 25.9585C14.8206 24.903 14.8389 24.274 14.5022 23.2365C13.7445 20.9049 11.5739 19.9759 9.39605 20.4784ZM15.1794 20.1205V20.8941C15.7138 20.8832 16.7862 20.5073 17.2218 20.3229C17.5037 20.1964 17.8404 20.0229 18.093 19.8783C19.6523 18.9854 20.593 17.6985 20.593 15.5368C20.593 15.197 19.5095 15.2946 19.1105 15.2946C17.9173 15.2946 16.746 16.0682 16.2152 16.7478C15.6149 17.525 15.1794 18.7721 15.1794 20.1205ZM15.1794 25.1271V25.9585C15.798 25.9585 16.8082 25.5898 17.2804 25.3766C19.3631 24.4764 20.593 23.0919 20.593 20.4748C17.5439 19.7699 15.1794 21.8737 15.1794 25.1271ZM25.1098 5.85251L21.9693 9.00108V8.96132L20.6223 8.9324C20.5051 8.9324 20.3514 8.91433 20.1867 8.89264L20.1464 8.88179L24.1471 4.89095C21.552 2.53766 18.276 1.36643 14.9927 1.36643C11.5044 1.36643 8.01611 2.6931 5.35505 5.35727C2.694 8.02145 1.3653 11.5062 1.3653 14.9946C1.3653 18.2769 2.5366 21.552 4.88287 24.1475L8.04173 20.9881C8.06003 21.3279 8.08931 21.6387 8.14788 21.946C8.18814 22.1882 8.24305 22.4196 8.31259 22.6545L5.85286 25.1054C8.44802 27.4587 11.724 28.63 14.9963 28.63C18.4919 28.63 21.9802 27.3033 24.6449 24.6391C27.3097 21.9749 28.6347 18.4866 28.6347 14.991C28.6347 11.7195 27.4634 8.44801 25.1098 5.85251Z" fill="#4F4F4F"/>
</svg>
