<svg width="32" height="19" viewBox="0 0 32 19" fill="none" xmlns="http://www.w3.org/2000/svg">
<path d="M7.70732 15.0016C11.4505 18.994 15.6616 18.7521 15.6616 18.7521H17.5332C17.5332 18.7521 18.118 18.6311 18.352 18.3891C18.5859 18.0262 18.5859 17.5423 18.5859 17.5423C18.5859 17.5423 18.5859 14.8807 19.7557 14.5177C20.9254 14.1548 22.4461 17.0583 24.0837 18.2681C25.2535 19.115 26.1893 18.994 26.1893 18.994L30.5173 18.873C30.5173 18.873 32.7399 18.7521 31.6871 16.9373C31.5701 16.8164 31.1022 15.6066 28.5288 13.1869C25.8384 10.6463 26.1893 11.0093 29.4646 6.53298C31.4531 3.87139 32.272 2.17766 31.921 1.45177C31.6871 0.725887 30.2834 0.967849 30.2834 0.967849H25.4874C25.4874 0.967849 25.1365 0.967848 24.9026 1.08883C24.6686 1.20981 24.4347 1.57275 24.4347 1.57275C24.4347 1.57275 23.6159 3.62943 22.6801 5.44415C20.5745 9.19456 19.6387 9.43652 19.2878 9.19456C18.469 8.58965 18.7029 7.0169 18.7029 5.80709C18.7029 2.17766 19.2878 0.604905 17.6502 0.241962C17.1823 0.120981 16.7144 0 15.4276 0C13.673 0 12.2693 2.16331e-07 11.4505 0.362943C10.8656 0.604905 10.3977 1.20981 10.7487 1.20981C11.0996 1.20981 11.8014 1.45177 12.1524 1.9357C12.6202 2.66158 12.6202 4.23434 12.6202 4.23434C12.6202 4.23434 12.8542 8.46867 11.9184 9.07358C11.2166 9.43652 10.3977 8.71064 8.40917 5.32317C7.47337 3.50845 6.65455 1.57275 6.65455 1.57275C6.65455 1.57275 6.53758 1.20981 6.30363 0.967849C5.9527 0.725887 5.60178 0.604905 5.60178 0.604905H1.03977C1.03977 0.604905 0.337926 0.604905 0.103977 0.967849C-0.129972 1.20981 0.103977 1.81472 0.103977 1.81472C0.103977 1.81472 3.73019 10.6463 7.70732 15.0016Z" fill="#4F4F4F"/>
</svg>
