<svg width="20" height="20" viewBox="0 0 20 20" fill="none" xmlns="http://www.w3.org/2000/svg">
<path d="M19.4848 14.7572L16.9991 12.271C16.3359 11.6078 15.1772 11.6067 14.5129 12.271L14.0984 12.6855L19.0705 17.6573L19.4848 17.243C20.1731 16.5547 20.1708 15.442 19.4848 14.7572Z" fill="#FBE214"/>
<path d="M13.2469 13.4913C12.7238 13.8965 11.9776 13.8803 11.4997 13.4013L6.58492 8.48313C6.10589 8.0041 6.08976 7.25738 6.49496 6.73561L1.53431 1.77524C-0.599742 4.26277 -0.516303 8.01098 1.839 10.3663L9.61656 18.1472C11.8767 20.4073 15.5789 20.7071 18.2078 18.4518L13.2469 13.4913Z" fill="#FBE214"/>
<path d="M7.71505 2.98408L5.22935 0.497833C4.56614 -0.165378 3.40742 -0.166511 2.74311 0.497833L2.32861 0.912331L7.30071 5.88415L7.71505 5.46977C8.40326 4.78156 8.40099 3.66889 7.71505 2.98408Z" fill="#FBE214"/>
</svg>
