<svg width="50" height="50" viewBox="0 0 50 50" fill="none" xmlns="http://www.w3.org/2000/svg">
<path fill-rule="evenodd" clip-rule="evenodd" d="M25 50C38.8071 50 50 38.8071 50 25C50 11.1929 38.8071 0 25 0C11.1929 0 0 11.1929 0 25C0 38.8071 11.1929 50 25 50Z" fill="#FBE214"/>
<path d="M14.7769 25.5391V34.7901C14.7769 35.6411 15.4691 36.3319 16.3187 36.3319H24.0278V25.5391H14.7769Z" fill="black"/>
<path d="M36.3628 19.372H31.4845C31.8345 19.133 32.1351 18.8956 32.3448 18.6828C33.5891 17.4324 33.5891 15.3972 32.3448 14.1468C31.136 12.9287 29.0299 12.9318 27.8226 14.1468C27.1535 14.8175 25.3804 17.548 25.6255 19.372H25.5145C25.7581 17.548 23.985 14.8175 23.3174 14.1468C22.1086 12.9318 20.0025 12.9318 18.7952 14.1468C17.5525 15.3972 17.5525 17.4324 18.7937 18.6828C19.0049 18.8956 19.3055 19.133 19.6555 19.372H14.7772C13.9276 19.372 13.2354 20.0643 13.2354 20.9139V23.2266C13.2354 23.6521 13.5807 23.9975 14.0063 23.9975H24.0282V20.9139H27.1118V23.9975H37.1337C37.5593 23.9975 37.9047 23.6521 37.9047 23.2266V20.9139C37.9047 20.0643 37.2139 19.372 36.3628 19.372ZM23.9372 19.3211C23.9372 19.3211 23.8724 19.372 23.652 19.372C22.5866 19.372 20.5529 18.265 19.8884 17.5958C19.2423 16.9452 19.2423 15.8844 19.8884 15.2337C20.2013 14.9192 20.6161 14.7465 21.0571 14.7465C21.4965 14.7465 21.9112 14.9192 22.2242 15.2337C23.2634 16.2791 24.2965 18.9496 23.9372 19.3211ZM27.4865 19.372C27.2676 19.372 27.2028 19.3227 27.2028 19.3211C26.8436 18.9496 27.8766 16.2791 28.9158 15.2337C29.5371 14.6062 30.6241 14.6031 31.2517 15.2337C31.8992 15.8844 31.8992 16.9452 31.2517 17.5958C30.5871 18.265 28.5534 19.372 27.4865 19.372Z" fill="black"/>
<path d="M27.1118 25.5391V36.3319H34.821C35.6721 36.3319 36.3628 35.6411 36.3628 34.7901V25.5391H27.1118Z" fill="black"/>
</svg>
