<svg width="50" height="50" viewBox="0 0 50 50" fill="none" xmlns="http://www.w3.org/2000/svg">
<path d="M42.0999 7.32442C46.9067 12.1973 49.3311 18.6062 49.3311 24.997C49.3311 31.3878 46.9127 37.7966 42.0999 42.6696C37.2871 47.5666 30.9703 50 24.6656 50C18.3608 50 12.038 47.5605 7.23122 42.6696C2.4064 37.7966 0 31.3938 0 24.997C0 18.6062 2.4064 12.1973 7.23122 7.32442C12.038 2.45151 18.3608 0 24.6656 0C30.9703 0 37.2871 2.45151 42.0999 7.32442ZM29.6468 39.0254C37.2871 34.4236 36.7336 22.0455 32.5766 15.2632C30.1401 11.2758 27.3367 9.69763 24.6656 9.74581C21.9884 9.69763 19.191 11.2818 16.7545 15.2632C12.5975 22.0395 12.044 34.4236 19.6843 39.0254C20.7973 39.7061 22.4396 40.2542 24.1241 40.2542C24.4911 40.2542 24.84 40.2542 25.207 40.2542C26.8794 40.2542 28.5338 39.7061 29.6468 39.0254ZM41.2877 9.76388L35.3981 15.733C35.1755 15.2632 34.9228 14.7994 34.6641 14.3597L34.4716 14.0525H34.4897C34.4115 13.926 34.3332 13.7935 34.249 13.6791L39.6935 8.1436C35.4402 4.24045 30.0438 2.28286 24.6656 2.28286C18.9323 2.28286 13.187 4.49343 8.82545 8.93266C4.4398 13.3779 2.24396 19.1905 2.24396 24.997C2.24396 30.4542 4.16908 35.9234 8.03736 40.2361L13.2292 34.9717C13.5661 35.7005 13.9451 36.3751 14.3782 37.0196L9.6316 41.8444C13.8849 45.7656 19.2812 47.7171 24.6595 47.7171C30.3928 47.7171 36.126 45.4885 40.4996 41.0493C44.8793 36.6281 47.0751 30.7975 47.0751 24.991C47.0811 19.5458 45.138 14.0706 41.2877 9.76388Z" fill="#4F4F4F"/>
</svg>
