<svg width="50" height="50" viewBox="0 0 50 50" fill="none" xmlns="http://www.w3.org/2000/svg">
<path d="M42.1144 7.31413C46.9235 12.2063 49.3311 18.5986 49.3311 24.991C49.3311 31.4014 46.9235 37.7937 42.1144 42.6859C37.2872 47.5599 30.9794 50 24.6535 50C18.3457 50 12.0378 47.5599 7.21067 42.6859C2.40155 37.7937 0 31.4014 0 24.991C0 18.5986 2.40757 12.2063 7.21669 7.31413C12.0439 2.44005 18.3517 0 24.6595 0C30.9794 0 37.2872 2.44005 42.1144 7.31413ZM24.6595 19.8397C25.2012 19.8397 26.5555 17.725 26.8083 17.2551C28.1806 14.8813 28.0181 11.8328 26.8564 9.47102C26.411 8.54922 25.4239 7.24184 24.6595 6.7237C23.2571 7.67562 21.8246 10.2603 21.6501 12.0978C21.6019 12.5316 21.5357 12.9353 21.5237 13.2787C21.4936 14.315 21.9992 16.2971 22.4807 17.1828C22.7455 17.713 24.1479 19.8397 24.6595 19.8397ZM24.9605 26.3947C25.454 26.1538 30.9794 25.5211 33.0499 21.2917C33.718 19.9542 33.8625 18.8697 33.8625 17.1587C32.4902 17.1286 31.2803 16.4779 28.7825 17.7552C25.3878 19.4722 24.9605 22.8582 24.9605 26.3947ZM15.4506 17.1647C15.4506 18.8938 15.577 19.912 16.2812 21.2977C17.19 23.1353 18.9897 24.5752 20.9037 25.3525C21.8427 25.726 23.1668 26.2863 24.3766 26.2863C24.3766 22.575 23.865 19.406 20.362 17.6467C18.0447 16.4839 16.6604 17.1286 15.4506 17.1647ZM15.4506 25.8947C15.4506 30.1723 17.6354 32.3232 20.9459 33.8354C21.614 34.1427 23.4798 34.8054 24.3706 34.8174C24.3706 32.1364 24.1961 29.9434 22.7154 27.9732C21.8547 26.8406 19.8504 25.485 17.9063 25.485C17.2502 25.491 15.4506 25.3284 15.4506 25.8947ZM15.4506 34.1306C15.4506 35.6971 15.6432 36.8297 16.1187 37.9383C17.0095 40.0229 18.8753 41.3785 20.8496 42.2641C21.5959 42.6196 23.3354 43.2642 24.3706 43.2642C24.3706 41.505 24.4007 40.4567 23.847 38.7276C22.6011 34.8415 19.0318 33.2932 15.4506 34.1306ZM24.9605 33.5342V34.8235C25.8392 34.8054 27.6028 34.1788 28.319 33.8716C28.7825 33.6607 29.3362 33.3715 29.7515 33.1305C32.3156 31.6424 33.8625 29.4975 33.8625 25.8947C33.8625 25.3284 32.0809 25.491 31.4248 25.491C29.4626 25.491 27.5366 26.7803 26.6638 27.913C25.6767 29.2083 24.9605 31.2869 24.9605 33.5342ZM24.9605 41.8785V43.2642C25.9777 43.2642 27.6389 42.6497 28.4153 42.2943C31.8401 40.7941 33.8625 38.4866 33.8625 34.1246C28.8487 32.9498 24.9605 36.4562 24.9605 41.8785ZM41.2898 9.75419L36.1256 15.0018V14.9355L33.9106 14.8873C33.718 14.8873 33.4652 14.8572 33.1944 14.8211L33.1282 14.803L39.7068 8.15158C35.4394 4.22943 30.0525 2.27738 24.6535 2.27738C18.9175 2.27738 13.1814 4.48849 8.80569 8.92879C4.42993 13.3691 2.24506 19.177 2.24506 24.991C2.24506 30.4615 4.17112 35.92 8.02925 40.2458L13.2236 34.9801C13.2537 35.5464 13.3018 36.0646 13.3981 36.5767C13.4643 36.9804 13.5546 37.3659 13.669 37.7576L9.62426 41.8424C13.8917 45.7645 19.2786 47.7166 24.6595 47.7166C30.4076 47.7166 36.1436 45.5055 40.5254 41.0652C44.9072 36.6249 47.086 30.8109 47.086 24.9849C47.086 19.5325 45.16 14.08 41.2898 9.75419Z" fill="#4F4F4F"/>
</svg>
